<mxfile host="app.diagrams.net" modified="2023-03-07T11:14:44.913Z" agent="5.0 (Windows NT 10.0; Win64; x64) AppleWebKit/537.36 (KHTML, like Gecko) Chrome/110.0.0.0 Safari/537.36 Edg/110.0.1587.50" etag="h49EJsYJe3Et5BIPCUmm" version="20.8.23" type="github">
  <diagram name="第 1 页" id="DRcXkjdLLeioAmzkRmEO">
    <mxGraphModel dx="3134" dy="611" grid="0" gridSize="10" guides="1" tooltips="1" connect="1" arrows="1" fold="1" page="0" pageScale="1" pageWidth="1169" pageHeight="827" math="0" shadow="0">
      <root>
        <mxCell id="0" />
        <mxCell id="1" parent="0" />
        <mxCell id="DpkDGt5Of3vKLXlmqG1_-1" value="" style="ellipse;html=1;shape=startState;fillColor=#000000;strokeColor=#ff0000;fontStyle=1" vertex="1" parent="1">
          <mxGeometry x="264" y="152" width="30" height="30" as="geometry" />
        </mxCell>
        <mxCell id="DpkDGt5Of3vKLXlmqG1_-2" value="" style="edgeStyle=orthogonalEdgeStyle;html=1;verticalAlign=bottom;endArrow=open;endSize=8;strokeColor=#ff0000;rounded=0;fontStyle=1" edge="1" source="DpkDGt5Of3vKLXlmqG1_-1" parent="1">
          <mxGeometry relative="1" as="geometry">
            <mxPoint x="279" y="220" as="targetPoint" />
          </mxGeometry>
        </mxCell>
        <mxCell id="DpkDGt5Of3vKLXlmqG1_-5" value="&lt;span&gt;输入邮箱、密码等信息&lt;/span&gt;" style="rounded=1;whiteSpace=wrap;html=1;arcSize=40;fontColor=#000000;fillColor=#ffffc0;strokeColor=#ff0000;fontStyle=1" vertex="1" parent="1">
          <mxGeometry x="219" y="222" width="120" height="40" as="geometry" />
        </mxCell>
        <mxCell id="DpkDGt5Of3vKLXlmqG1_-6" value="" style="edgeStyle=orthogonalEdgeStyle;html=1;verticalAlign=bottom;endArrow=open;endSize=8;strokeColor=#ff0000;rounded=0;fontStyle=1" edge="1" source="DpkDGt5Of3vKLXlmqG1_-5" parent="1">
          <mxGeometry relative="1" as="geometry">
            <mxPoint x="279" y="295" as="targetPoint" />
          </mxGeometry>
        </mxCell>
        <mxCell id="DpkDGt5Of3vKLXlmqG1_-9" value="邮箱以及密码格式是否符合" style="rhombus;whiteSpace=wrap;html=1;fontColor=#000000;fillColor=#ffffc0;strokeColor=#ff0000;fontStyle=1" vertex="1" parent="1">
          <mxGeometry x="237" y="295" width="80" height="40" as="geometry" />
        </mxCell>
        <mxCell id="DpkDGt5Of3vKLXlmqG1_-10" value="no" style="edgeStyle=orthogonalEdgeStyle;html=1;align=left;verticalAlign=bottom;endArrow=none;endSize=8;strokeColor=#ff0000;rounded=0;fontStyle=1;endFill=0;" edge="1" source="DpkDGt5Of3vKLXlmqG1_-9" parent="1">
          <mxGeometry x="-1" relative="1" as="geometry">
            <mxPoint x="431" y="315" as="targetPoint" />
          </mxGeometry>
        </mxCell>
        <mxCell id="DpkDGt5Of3vKLXlmqG1_-11" value="yes" style="edgeStyle=orthogonalEdgeStyle;html=1;align=left;verticalAlign=top;endArrow=open;endSize=8;strokeColor=#ff0000;rounded=0;fontStyle=1" edge="1" source="DpkDGt5Of3vKLXlmqG1_-9" parent="1">
          <mxGeometry x="-1" relative="1" as="geometry">
            <mxPoint x="277" y="395" as="targetPoint" />
          </mxGeometry>
        </mxCell>
        <mxCell id="DpkDGt5Of3vKLXlmqG1_-24" style="edgeStyle=orthogonalEdgeStyle;rounded=0;orthogonalLoop=1;jettySize=auto;html=1;exitX=0.5;exitY=1;exitDx=0;exitDy=0;strokeColor=#FF2D0D;endArrow=open;endFill=0;fontStyle=1" edge="1" parent="1" source="DpkDGt5Of3vKLXlmqG1_-13">
          <mxGeometry relative="1" as="geometry">
            <mxPoint x="278.8571428571429" y="474" as="targetPoint" />
          </mxGeometry>
        </mxCell>
        <mxCell id="DpkDGt5Of3vKLXlmqG1_-13" value="输入邮箱验证码" style="rounded=1;whiteSpace=wrap;html=1;arcSize=40;fontColor=#000000;fillColor=#ffffc0;strokeColor=#ff0000;fontStyle=1" vertex="1" parent="1">
          <mxGeometry x="219" y="393" width="120" height="40" as="geometry" />
        </mxCell>
        <mxCell id="DpkDGt5Of3vKLXlmqG1_-25" value="验证码正确且邮箱不重复" style="rhombus;whiteSpace=wrap;html=1;fontColor=#000000;fillColor=#ffffc0;strokeColor=#ff0000;fontStyle=1" vertex="1" parent="1">
          <mxGeometry x="237" y="475" width="80" height="40" as="geometry" />
        </mxCell>
        <mxCell id="DpkDGt5Of3vKLXlmqG1_-26" value="no" style="html=1;align=left;verticalAlign=bottom;endArrow=open;endSize=8;strokeColor=#FF230A;rounded=0;shadow=0;movable=1;resizable=1;rotatable=1;deletable=1;editable=1;locked=0;connectable=1;edgeStyle=orthogonalEdgeStyle;endFill=0;entryX=1;entryY=0.5;entryDx=0;entryDy=0;exitX=1;exitY=0.5;exitDx=0;exitDy=0;fontStyle=1" edge="1" source="DpkDGt5Of3vKLXlmqG1_-25" parent="1" target="DpkDGt5Of3vKLXlmqG1_-5">
          <mxGeometry x="-1" relative="1" as="geometry">
            <mxPoint x="421" y="240" as="targetPoint" />
            <Array as="points">
              <mxPoint x="432" y="495" />
              <mxPoint x="432" y="242" />
            </Array>
          </mxGeometry>
        </mxCell>
        <mxCell id="DpkDGt5Of3vKLXlmqG1_-27" value="yes" style="edgeStyle=orthogonalEdgeStyle;html=1;align=left;verticalAlign=top;endArrow=open;endSize=8;strokeColor=#ff0000;rounded=0;fontStyle=1" edge="1" source="DpkDGt5Of3vKLXlmqG1_-25" parent="1">
          <mxGeometry x="-1" relative="1" as="geometry">
            <mxPoint x="277" y="575" as="targetPoint" />
          </mxGeometry>
        </mxCell>
        <mxCell id="DpkDGt5Of3vKLXlmqG1_-28" value="注册成功" style="rounded=1;whiteSpace=wrap;html=1;arcSize=40;fontColor=#000000;fillColor=#ffffc0;strokeColor=#ff0000;fontStyle=1" vertex="1" parent="1">
          <mxGeometry x="219" y="574" width="120" height="40" as="geometry" />
        </mxCell>
        <mxCell id="DpkDGt5Of3vKLXlmqG1_-29" value="" style="edgeStyle=orthogonalEdgeStyle;html=1;verticalAlign=bottom;endArrow=open;endSize=8;strokeColor=#ff0000;rounded=0;fontStyle=1" edge="1" source="DpkDGt5Of3vKLXlmqG1_-28" parent="1">
          <mxGeometry relative="1" as="geometry">
            <mxPoint x="279" y="653" as="targetPoint" />
          </mxGeometry>
        </mxCell>
        <mxCell id="DpkDGt5Of3vKLXlmqG1_-37" value="" style="ellipse;html=1;shape=endState;fillColor=#000000;strokeColor=#ff0000;fontStyle=1" vertex="1" parent="1">
          <mxGeometry x="264" y="653" width="30" height="30" as="geometry" />
        </mxCell>
        <mxCell id="DpkDGt5Of3vKLXlmqG1_-40" value="" style="ellipse;html=1;shape=startState;fillColor=#000000;strokeColor=#ff0000;fontStyle=1" vertex="1" parent="1">
          <mxGeometry x="633" y="139" width="30" height="30" as="geometry" />
        </mxCell>
        <mxCell id="DpkDGt5Of3vKLXlmqG1_-41" value="" style="edgeStyle=orthogonalEdgeStyle;html=1;verticalAlign=bottom;endArrow=open;endSize=8;strokeColor=#ff0000;rounded=0;shadow=0;sketch=0;fontStyle=1" edge="1" source="DpkDGt5Of3vKLXlmqG1_-40" parent="1">
          <mxGeometry relative="1" as="geometry">
            <mxPoint x="648" y="211" as="targetPoint" />
          </mxGeometry>
        </mxCell>
        <mxCell id="DpkDGt5Of3vKLXlmqG1_-42" value="输入用户邮箱以及密码，或者QQ授权" style="rounded=1;whiteSpace=wrap;html=1;arcSize=40;fontColor=#000000;fillColor=#ffffc0;strokeColor=#ff0000;fontStyle=1" vertex="1" parent="1">
          <mxGeometry x="588" y="206" width="120" height="40" as="geometry" />
        </mxCell>
        <mxCell id="DpkDGt5Of3vKLXlmqG1_-43" value="" style="edgeStyle=orthogonalEdgeStyle;html=1;verticalAlign=bottom;endArrow=open;endSize=8;strokeColor=#ff0000;rounded=0;shadow=0;sketch=0;fontStyle=1" edge="1" source="DpkDGt5Of3vKLXlmqG1_-42" parent="1">
          <mxGeometry relative="1" as="geometry">
            <mxPoint x="648" y="306" as="targetPoint" />
          </mxGeometry>
        </mxCell>
        <mxCell id="DpkDGt5Of3vKLXlmqG1_-44" value="邮箱格式与密码格是否正确或者是否授权QQ登录" style="rhombus;whiteSpace=wrap;html=1;fontColor=#000000;fillColor=#ffffc0;strokeColor=#ff0000;fontStyle=1" vertex="1" parent="1">
          <mxGeometry x="592" y="304" width="106" height="57" as="geometry" />
        </mxCell>
        <mxCell id="DpkDGt5Of3vKLXlmqG1_-45" value="no" style="edgeStyle=orthogonalEdgeStyle;html=1;align=left;verticalAlign=bottom;endArrow=none;endSize=8;strokeColor=#ff0000;rounded=0;shadow=0;sketch=0;endFill=0;fontStyle=1" edge="1" source="DpkDGt5Of3vKLXlmqG1_-44" parent="1">
          <mxGeometry x="-1" relative="1" as="geometry">
            <mxPoint x="795" y="332" as="targetPoint" />
          </mxGeometry>
        </mxCell>
        <mxCell id="DpkDGt5Of3vKLXlmqG1_-46" value="yes" style="html=1;align=left;verticalAlign=top;endArrow=open;endSize=8;strokeColor=#ff0000;rounded=0;shadow=0;sketch=0;fontStyle=1" edge="1" source="DpkDGt5Of3vKLXlmqG1_-44" parent="1">
          <mxGeometry x="-1" relative="1" as="geometry">
            <mxPoint x="647" y="411" as="targetPoint" />
          </mxGeometry>
        </mxCell>
        <mxCell id="DpkDGt5Of3vKLXlmqG1_-47" value="验证账户" style="rounded=1;whiteSpace=wrap;html=1;arcSize=40;fontColor=#000000;fillColor=#ffffc0;strokeColor=#ff0000;fontStyle=1" vertex="1" parent="1">
          <mxGeometry x="585" y="411" width="120" height="40" as="geometry" />
        </mxCell>
        <mxCell id="DpkDGt5Of3vKLXlmqG1_-48" value="" style="edgeStyle=orthogonalEdgeStyle;html=1;verticalAlign=bottom;endArrow=open;endSize=8;strokeColor=#ff0000;rounded=0;shadow=0;sketch=0;fontStyle=1;entryX=0.5;entryY=0;entryDx=0;entryDy=0;" edge="1" source="DpkDGt5Of3vKLXlmqG1_-47" parent="1" target="DpkDGt5Of3vKLXlmqG1_-49">
          <mxGeometry relative="1" as="geometry">
            <mxPoint x="645" y="511" as="targetPoint" />
          </mxGeometry>
        </mxCell>
        <mxCell id="DpkDGt5Of3vKLXlmqG1_-70" value="" style="edgeStyle=none;rounded=0;sketch=0;orthogonalLoop=1;jettySize=auto;html=1;shadow=0;strokeColor=#FF230A;endArrow=open;endFill=0;" edge="1" parent="1" source="DpkDGt5Of3vKLXlmqG1_-49" target="DpkDGt5Of3vKLXlmqG1_-52">
          <mxGeometry relative="1" as="geometry" />
        </mxCell>
        <mxCell id="DpkDGt5Of3vKLXlmqG1_-49" value="账户验证是否成功" style="rhombus;whiteSpace=wrap;html=1;fontColor=#000000;fillColor=#ffffc0;strokeColor=#ff0000;fontStyle=1" vertex="1" parent="1">
          <mxGeometry x="605" y="493" width="80" height="40" as="geometry" />
        </mxCell>
        <mxCell id="DpkDGt5Of3vKLXlmqG1_-50" value="no" style="edgeStyle=orthogonalEdgeStyle;html=1;align=left;verticalAlign=bottom;endArrow=open;endSize=8;strokeColor=#ff0000;rounded=0;shadow=0;sketch=0;entryX=1;entryY=0.5;entryDx=0;entryDy=0;exitX=1;exitY=0.5;exitDx=0;exitDy=0;fontStyle=1" edge="1" source="DpkDGt5Of3vKLXlmqG1_-49" parent="1" target="DpkDGt5Of3vKLXlmqG1_-42">
          <mxGeometry x="-1" relative="1" as="geometry">
            <mxPoint x="784" y="528" as="targetPoint" />
            <Array as="points">
              <mxPoint x="795" y="514" />
              <mxPoint x="795" y="226" />
            </Array>
          </mxGeometry>
        </mxCell>
        <mxCell id="DpkDGt5Of3vKLXlmqG1_-55" style="edgeStyle=none;rounded=0;sketch=0;orthogonalLoop=1;jettySize=auto;html=1;exitX=1;exitY=1;exitDx=0;exitDy=0;shadow=0;strokeColor=#FF230A;endArrow=none;endFill=0;fontStyle=1" edge="1" parent="1" source="DpkDGt5Of3vKLXlmqG1_-54" target="DpkDGt5Of3vKLXlmqG1_-54">
          <mxGeometry relative="1" as="geometry" />
        </mxCell>
        <mxCell id="DpkDGt5Of3vKLXlmqG1_-56" style="edgeStyle=none;rounded=0;sketch=0;orthogonalLoop=1;jettySize=auto;html=1;exitX=0;exitY=0.5;exitDx=0;exitDy=0;shadow=0;strokeColor=#FF230A;endArrow=none;endFill=0;fontStyle=1" edge="1" parent="1" source="DpkDGt5Of3vKLXlmqG1_-54" target="DpkDGt5Of3vKLXlmqG1_-54">
          <mxGeometry relative="1" as="geometry" />
        </mxCell>
        <mxCell id="DpkDGt5Of3vKLXlmqG1_-54" value="" style="ellipse;html=1;shape=endState;fillColor=#000000;strokeColor=#ff0000;fontStyle=1" vertex="1" parent="1">
          <mxGeometry x="629" y="651" width="30" height="30" as="geometry" />
        </mxCell>
        <mxCell id="DpkDGt5Of3vKLXlmqG1_-61" value="点击具体博文或者说说后在下方评论" style="rounded=1;whiteSpace=wrap;html=1;arcSize=40;fontColor=#000000;fillColor=#ffffc0;strokeColor=#ff0000;verticalAlign=middle;fontStyle=1;fontSize=16;" vertex="1" parent="1">
          <mxGeometry x="967" y="243" width="120" height="40" as="geometry" />
        </mxCell>
        <mxCell id="DpkDGt5Of3vKLXlmqG1_-62" value="" style="edgeStyle=orthogonalEdgeStyle;html=1;verticalAlign=middle;endArrow=open;endSize=8;strokeColor=#ff0000;rounded=0;shadow=0;sketch=0;fontStyle=1;fontSize=16;" edge="1" source="DpkDGt5Of3vKLXlmqG1_-61" parent="1">
          <mxGeometry relative="1" as="geometry">
            <mxPoint x="1027" y="343" as="targetPoint" />
          </mxGeometry>
        </mxCell>
        <mxCell id="DpkDGt5Of3vKLXlmqG1_-63" value="输入评论内容" style="rounded=1;whiteSpace=wrap;html=1;arcSize=40;fontColor=#000000;fillColor=#ffffc0;strokeColor=#ff0000;verticalAlign=middle;fontStyle=1;fontSize=16;" vertex="1" parent="1">
          <mxGeometry x="967" y="342" width="120" height="40" as="geometry" />
        </mxCell>
        <mxCell id="DpkDGt5Of3vKLXlmqG1_-64" value="" style="edgeStyle=orthogonalEdgeStyle;html=1;verticalAlign=middle;endArrow=open;endSize=8;strokeColor=#ff0000;rounded=0;shadow=0;sketch=0;fontStyle=1;fontSize=16;" edge="1" source="DpkDGt5Of3vKLXlmqG1_-63" parent="1">
          <mxGeometry relative="1" as="geometry">
            <mxPoint x="1027" y="441" as="targetPoint" />
          </mxGeometry>
        </mxCell>
        <mxCell id="DpkDGt5Of3vKLXlmqG1_-65" value="检查评论内容是否为空" style="rhombus;whiteSpace=wrap;html=1;fontColor=#000000;fillColor=#ffffc0;strokeColor=#ff0000;verticalAlign=middle;fontStyle=1;fontSize=16;" vertex="1" parent="1">
          <mxGeometry x="985" y="441" width="80" height="40" as="geometry" />
        </mxCell>
        <mxCell id="DpkDGt5Of3vKLXlmqG1_-66" value="no" style="edgeStyle=orthogonalEdgeStyle;html=1;align=left;verticalAlign=middle;endArrow=open;endSize=8;strokeColor=#ff0000;rounded=0;shadow=0;sketch=0;entryX=1;entryY=0.5;entryDx=0;entryDy=0;fontStyle=1;fontSize=16;" edge="1" parent="1" target="DpkDGt5Of3vKLXlmqG1_-61">
          <mxGeometry x="-0.7944" y="16" relative="1" as="geometry">
            <mxPoint x="1166" y="459" as="targetPoint" />
            <mxPoint x="1062" y="459" as="sourcePoint" />
            <Array as="points">
              <mxPoint x="1137" y="459" />
              <mxPoint x="1137" y="263" />
            </Array>
            <mxPoint as="offset" />
          </mxGeometry>
        </mxCell>
        <mxCell id="DpkDGt5Of3vKLXlmqG1_-67" value="yes" style="edgeStyle=orthogonalEdgeStyle;html=1;align=left;verticalAlign=middle;endArrow=open;endSize=5;strokeColor=#ff0000;rounded=0;shadow=0;sketch=0;fontStyle=1;spacing=0;fontSize=16;startSize=0;" edge="1" source="DpkDGt5Of3vKLXlmqG1_-65" parent="1">
          <mxGeometry x="-0.1667" y="12" relative="1" as="geometry">
            <mxPoint x="1026" y="539" as="targetPoint" />
            <mxPoint y="1" as="offset" />
          </mxGeometry>
        </mxCell>
        <mxCell id="DpkDGt5Of3vKLXlmqG1_-71" value="" style="edgeStyle=none;rounded=0;sketch=0;orthogonalLoop=1;jettySize=auto;html=1;shadow=0;strokeColor=#FF230A;endArrow=open;endFill=0;" edge="1" parent="1" source="DpkDGt5Of3vKLXlmqG1_-52" target="DpkDGt5Of3vKLXlmqG1_-54">
          <mxGeometry relative="1" as="geometry" />
        </mxCell>
        <mxCell id="DpkDGt5Of3vKLXlmqG1_-52" value="登录成功" style="rounded=1;whiteSpace=wrap;html=1;arcSize=40;fontColor=#000000;fillColor=#ffffc0;strokeColor=#ff0000;fontStyle=1" vertex="1" parent="1">
          <mxGeometry x="584" y="580" width="120" height="40" as="geometry" />
        </mxCell>
        <mxCell id="DpkDGt5Of3vKLXlmqG1_-72" value="提交评论内容到后端进行脏字过滤" style="rounded=1;whiteSpace=wrap;html=1;arcSize=40;fontColor=#000000;fillColor=#ffffc0;strokeColor=#ff0000;verticalAlign=middle;fontStyle=1;fontSize=16;" vertex="1" parent="1">
          <mxGeometry x="967" y="540" width="120" height="40" as="geometry" />
        </mxCell>
        <mxCell id="DpkDGt5Of3vKLXlmqG1_-73" value="" style="edgeStyle=orthogonalEdgeStyle;html=1;verticalAlign=middle;endArrow=open;endSize=8;strokeColor=#ff0000;rounded=0;shadow=0;sketch=0;fontStyle=1;fontSize=16;" edge="1" source="DpkDGt5Of3vKLXlmqG1_-72" parent="1">
          <mxGeometry relative="1" as="geometry">
            <mxPoint x="1027" y="641" as="targetPoint" />
          </mxGeometry>
        </mxCell>
        <mxCell id="DpkDGt5Of3vKLXlmqG1_-74" value="将评论信息存入数据库并通知回复人" style="rounded=1;whiteSpace=wrap;html=1;arcSize=40;fontColor=#000000;fillColor=#ffffc0;strokeColor=#ff0000;verticalAlign=middle;fontStyle=1;fontSize=16;" vertex="1" parent="1">
          <mxGeometry x="967" y="641" width="120" height="40" as="geometry" />
        </mxCell>
        <mxCell id="DpkDGt5Of3vKLXlmqG1_-75" value="" style="edgeStyle=orthogonalEdgeStyle;html=1;verticalAlign=middle;endArrow=open;endSize=8;strokeColor=#ff0000;rounded=0;shadow=0;sketch=0;fontStyle=1;fontSize=16;" edge="1" source="DpkDGt5Of3vKLXlmqG1_-74" parent="1">
          <mxGeometry relative="1" as="geometry">
            <mxPoint x="1027" y="743" as="targetPoint" />
          </mxGeometry>
        </mxCell>
        <mxCell id="DpkDGt5Of3vKLXlmqG1_-79" value="" style="ellipse;html=1;shape=startState;fillColor=#000000;strokeColor=#ff0000;fontSize=1;fontStyle=1" vertex="1" parent="1">
          <mxGeometry x="1303" y="169" width="30" height="30" as="geometry" />
        </mxCell>
        <mxCell id="DpkDGt5Of3vKLXlmqG1_-80" value="" style="edgeStyle=orthogonalEdgeStyle;html=1;verticalAlign=bottom;endArrow=open;endSize=8;strokeColor=#ff0000;rounded=0;shadow=0;sketch=0;fontSize=1;fontStyle=1" edge="1" source="DpkDGt5Of3vKLXlmqG1_-79" parent="1">
          <mxGeometry relative="1" as="geometry">
            <mxPoint x="1318" y="259" as="targetPoint" />
          </mxGeometry>
        </mxCell>
        <mxCell id="DpkDGt5Of3vKLXlmqG1_-81" value="点击搜索按钮" style="rounded=1;whiteSpace=wrap;html=1;arcSize=40;fontColor=#000000;fillColor=#ffffc0;strokeColor=#ff0000;fontSize=1;fontStyle=1" vertex="1" parent="1">
          <mxGeometry x="1258" y="262" width="120" height="40" as="geometry" />
        </mxCell>
        <mxCell id="DpkDGt5Of3vKLXlmqG1_-82" value="" style="edgeStyle=orthogonalEdgeStyle;html=1;verticalAlign=bottom;endArrow=open;endSize=8;strokeColor=#ff0000;rounded=0;shadow=0;sketch=0;fontSize=1;fontStyle=1" edge="1" source="DpkDGt5Of3vKLXlmqG1_-81" parent="1">
          <mxGeometry relative="1" as="geometry">
            <mxPoint x="1318" y="362" as="targetPoint" />
          </mxGeometry>
        </mxCell>
        <mxCell id="DpkDGt5Of3vKLXlmqG1_-83" value="输入搜索内容" style="rounded=1;whiteSpace=wrap;html=1;arcSize=40;fontColor=#000000;fillColor=#ffffc0;strokeColor=#ff0000;fontSize=1;fontStyle=1" vertex="1" parent="1">
          <mxGeometry x="1258" y="361" width="120" height="40" as="geometry" />
        </mxCell>
        <mxCell id="DpkDGt5Of3vKLXlmqG1_-84" value="" style="edgeStyle=orthogonalEdgeStyle;html=1;verticalAlign=bottom;endArrow=open;endSize=8;strokeColor=#ff0000;rounded=0;shadow=0;sketch=0;fontSize=1;fontStyle=1" edge="1" source="DpkDGt5Of3vKLXlmqG1_-83" parent="1">
          <mxGeometry relative="1" as="geometry">
            <mxPoint x="1318" y="461" as="targetPoint" />
          </mxGeometry>
        </mxCell>
        <mxCell id="DpkDGt5Of3vKLXlmqG1_-85" value="后端根据搜索内容查询并高亮关键词返回具体文章" style="rounded=1;whiteSpace=wrap;html=1;arcSize=40;fontColor=#000000;fillColor=#ffffc0;strokeColor=#ff0000;fontSize=1;fontStyle=1" vertex="1" parent="1">
          <mxGeometry x="1262" y="463" width="121" height="37" as="geometry" />
        </mxCell>
        <mxCell id="DpkDGt5Of3vKLXlmqG1_-86" value="" style="edgeStyle=orthogonalEdgeStyle;html=1;verticalAlign=bottom;endArrow=open;endSize=8;strokeColor=#ff0000;rounded=0;shadow=0;sketch=0;fontSize=1;fontStyle=1" edge="1" source="DpkDGt5Of3vKLXlmqG1_-85" parent="1">
          <mxGeometry relative="1" as="geometry">
            <mxPoint x="1322" y="560" as="targetPoint" />
          </mxGeometry>
        </mxCell>
        <mxCell id="DpkDGt5Of3vKLXlmqG1_-87" value="" style="ellipse;html=1;shape=endState;fillColor=#000000;strokeColor=#ff0000;fontSize=1;fontStyle=1" vertex="1" parent="1">
          <mxGeometry x="1307" y="563" width="30" height="30" as="geometry" />
        </mxCell>
        <mxCell id="DpkDGt5Of3vKLXlmqG1_-88" value="将评论信息返回前端展示" style="rounded=1;whiteSpace=wrap;html=1;arcSize=40;fontColor=#000000;fillColor=#ffffc0;strokeColor=#ff0000;fontSize=16;fontStyle=1" vertex="1" parent="1">
          <mxGeometry x="967" y="745" width="120" height="40" as="geometry" />
        </mxCell>
        <mxCell id="DpkDGt5Of3vKLXlmqG1_-89" value="" style="edgeStyle=orthogonalEdgeStyle;html=1;verticalAlign=bottom;endArrow=open;endSize=8;strokeColor=#ff0000;rounded=0;shadow=0;sketch=0;fontSize=16;fontStyle=1" edge="1" source="DpkDGt5Of3vKLXlmqG1_-88" parent="1">
          <mxGeometry relative="1" as="geometry">
            <mxPoint x="1027" y="845" as="targetPoint" />
          </mxGeometry>
        </mxCell>
        <mxCell id="DpkDGt5Of3vKLXlmqG1_-90" value="" style="ellipse;html=1;shape=endState;fillColor=#000000;strokeColor=#ff0000;fontSize=16;fontStyle=1" vertex="1" parent="1">
          <mxGeometry x="1012" y="845" width="30" height="30" as="geometry" />
        </mxCell>
        <mxCell id="DpkDGt5Of3vKLXlmqG1_-91" value="" style="ellipse;html=1;shape=startState;fillColor=#000000;strokeColor=#ff0000;fontSize=1;fontStyle=1" vertex="1" parent="1">
          <mxGeometry x="1636" y="169" width="30" height="30" as="geometry" />
        </mxCell>
        <mxCell id="DpkDGt5Of3vKLXlmqG1_-92" value="" style="edgeStyle=orthogonalEdgeStyle;html=1;verticalAlign=bottom;endArrow=open;endSize=8;strokeColor=#ff0000;rounded=0;shadow=0;sketch=0;fontSize=1;fontStyle=1" edge="1" source="DpkDGt5Of3vKLXlmqG1_-91" parent="1">
          <mxGeometry relative="1" as="geometry">
            <mxPoint x="1651" y="259" as="targetPoint" />
          </mxGeometry>
        </mxCell>
        <mxCell id="DpkDGt5Of3vKLXlmqG1_-93" value="用户登录后点击头像，点击个人中心" style="rounded=1;whiteSpace=wrap;html=1;arcSize=40;fontColor=#000000;fillColor=#ffffc0;strokeColor=#ff0000;fontSize=1;fontStyle=1" vertex="1" parent="1">
          <mxGeometry x="1591" y="261" width="120" height="40" as="geometry" />
        </mxCell>
        <mxCell id="DpkDGt5Of3vKLXlmqG1_-94" value="" style="edgeStyle=orthogonalEdgeStyle;html=1;verticalAlign=bottom;endArrow=open;endSize=8;strokeColor=#ff0000;rounded=0;shadow=0;sketch=0;fontSize=1;fontStyle=1" edge="1" source="DpkDGt5Of3vKLXlmqG1_-93" parent="1">
          <mxGeometry relative="1" as="geometry">
            <mxPoint x="1651" y="361" as="targetPoint" />
          </mxGeometry>
        </mxCell>
        <mxCell id="DpkDGt5Of3vKLXlmqG1_-95" value="修改用户信息" style="rounded=1;whiteSpace=wrap;html=1;arcSize=40;fontColor=#000000;fillColor=#ffffc0;strokeColor=#ff0000;fontSize=1;fontStyle=1" vertex="1" parent="1">
          <mxGeometry x="1591" y="363" width="120" height="40" as="geometry" />
        </mxCell>
        <mxCell id="DpkDGt5Of3vKLXlmqG1_-96" value="" style="edgeStyle=orthogonalEdgeStyle;html=1;verticalAlign=bottom;endArrow=open;endSize=8;strokeColor=#ff0000;rounded=0;shadow=0;sketch=0;fontSize=1;fontStyle=1" edge="1" source="DpkDGt5Of3vKLXlmqG1_-95" parent="1">
          <mxGeometry relative="1" as="geometry">
            <mxPoint x="1651" y="463" as="targetPoint" />
          </mxGeometry>
        </mxCell>
        <mxCell id="DpkDGt5Of3vKLXlmqG1_-97" value="确认修改" style="rounded=1;whiteSpace=wrap;html=1;arcSize=40;fontColor=#000000;fillColor=#ffffc0;strokeColor=#ff0000;fontSize=1;fontStyle=1" vertex="1" parent="1">
          <mxGeometry x="1591" y="465" width="120" height="40" as="geometry" />
        </mxCell>
        <mxCell id="DpkDGt5Of3vKLXlmqG1_-98" value="" style="edgeStyle=orthogonalEdgeStyle;html=1;verticalAlign=bottom;endArrow=open;endSize=8;strokeColor=#ff0000;rounded=0;shadow=0;sketch=0;fontSize=1;fontStyle=1" edge="1" source="DpkDGt5Of3vKLXlmqG1_-97" parent="1">
          <mxGeometry relative="1" as="geometry">
            <mxPoint x="1651" y="565" as="targetPoint" />
          </mxGeometry>
        </mxCell>
        <mxCell id="DpkDGt5Of3vKLXlmqG1_-99" value="" style="ellipse;html=1;shape=endState;fillColor=#000000;strokeColor=#ff0000;fontSize=1;fontStyle=1" vertex="1" parent="1">
          <mxGeometry x="1636" y="567" width="30" height="30" as="geometry" />
        </mxCell>
        <mxCell id="DpkDGt5Of3vKLXlmqG1_-101" value="" style="ellipse;html=1;shape=startState;fillColor=#000000;strokeColor=#ff0000;fontSize=1;fontStyle=1" vertex="1" parent="1">
          <mxGeometry x="-12" y="747" width="30" height="30" as="geometry" />
        </mxCell>
        <mxCell id="DpkDGt5Of3vKLXlmqG1_-102" value="" style="edgeStyle=orthogonalEdgeStyle;html=1;verticalAlign=bottom;endArrow=open;endSize=8;strokeColor=#ff0000;rounded=0;shadow=0;sketch=0;fontSize=1;fontStyle=1" edge="1" source="DpkDGt5Of3vKLXlmqG1_-101" parent="1">
          <mxGeometry relative="1" as="geometry">
            <mxPoint x="3" y="837" as="targetPoint" />
          </mxGeometry>
        </mxCell>
        <mxCell id="DpkDGt5Of3vKLXlmqG1_-103" value="管理员进入博客后台管理页面" style="rounded=1;whiteSpace=wrap;html=1;arcSize=40;fontColor=#000000;fillColor=#ffffc0;strokeColor=#ff0000;fontSize=1;fontStyle=1" vertex="1" parent="1">
          <mxGeometry x="-57" y="841" width="120" height="40" as="geometry" />
        </mxCell>
        <mxCell id="DpkDGt5Of3vKLXlmqG1_-104" value="" style="edgeStyle=orthogonalEdgeStyle;html=1;verticalAlign=bottom;endArrow=open;endSize=8;strokeColor=#ff0000;rounded=0;shadow=0;sketch=0;fontSize=1;fontStyle=1" edge="1" source="DpkDGt5Of3vKLXlmqG1_-103" parent="1">
          <mxGeometry relative="1" as="geometry">
            <mxPoint x="3" y="941" as="targetPoint" />
          </mxGeometry>
        </mxCell>
        <mxCell id="DpkDGt5Of3vKLXlmqG1_-105" value="点击文章管理选择发布文章" style="rounded=1;whiteSpace=wrap;html=1;arcSize=40;fontColor=#000000;fillColor=#ffffc0;strokeColor=#ff0000;fontSize=1;fontStyle=1" vertex="1" parent="1">
          <mxGeometry x="-57" y="945" width="120" height="40" as="geometry" />
        </mxCell>
        <mxCell id="DpkDGt5Of3vKLXlmqG1_-106" value="" style="edgeStyle=orthogonalEdgeStyle;html=1;verticalAlign=bottom;endArrow=open;endSize=8;strokeColor=#ff0000;rounded=0;shadow=0;sketch=0;fontSize=1;fontStyle=1" edge="1" source="DpkDGt5Of3vKLXlmqG1_-105" parent="1">
          <mxGeometry relative="1" as="geometry">
            <mxPoint x="3" y="1045" as="targetPoint" />
          </mxGeometry>
        </mxCell>
        <mxCell id="DpkDGt5Of3vKLXlmqG1_-107" value="编辑要发布的博文" style="rounded=1;whiteSpace=wrap;html=1;arcSize=40;fontColor=#000000;fillColor=#ffffc0;strokeColor=#ff0000;fontSize=1;fontStyle=1" vertex="1" parent="1">
          <mxGeometry x="-57" y="1044" width="120" height="40" as="geometry" />
        </mxCell>
        <mxCell id="DpkDGt5Of3vKLXlmqG1_-108" value="" style="edgeStyle=orthogonalEdgeStyle;html=1;verticalAlign=bottom;endArrow=open;endSize=8;strokeColor=#ff0000;rounded=0;shadow=0;sketch=0;fontSize=1;fontStyle=1" edge="1" source="DpkDGt5Of3vKLXlmqG1_-107" parent="1">
          <mxGeometry relative="1" as="geometry">
            <mxPoint x="3" y="1144" as="targetPoint" />
          </mxGeometry>
        </mxCell>
        <mxCell id="DpkDGt5Of3vKLXlmqG1_-109" value="发布文章" style="rounded=1;whiteSpace=wrap;html=1;arcSize=40;fontColor=#000000;fillColor=#ffffc0;strokeColor=#ff0000;fontSize=1;fontStyle=1" vertex="1" parent="1">
          <mxGeometry x="-57" y="1149" width="120" height="40" as="geometry" />
        </mxCell>
        <mxCell id="DpkDGt5Of3vKLXlmqG1_-110" value="" style="edgeStyle=orthogonalEdgeStyle;html=1;verticalAlign=bottom;endArrow=open;endSize=8;strokeColor=#ff0000;rounded=0;shadow=0;sketch=0;fontSize=1;fontStyle=1" edge="1" source="DpkDGt5Of3vKLXlmqG1_-109" parent="1">
          <mxGeometry relative="1" as="geometry">
            <mxPoint x="3" y="1249" as="targetPoint" />
          </mxGeometry>
        </mxCell>
        <mxCell id="DpkDGt5Of3vKLXlmqG1_-111" value="" style="ellipse;html=1;shape=endState;fillColor=#000000;strokeColor=#ff0000;fontSize=1;fontStyle=1" vertex="1" parent="1">
          <mxGeometry x="-12" y="1250" width="30" height="30" as="geometry" />
        </mxCell>
        <mxCell id="DpkDGt5Of3vKLXlmqG1_-112" value="" style="ellipse;html=1;shape=startState;fillColor=#000000;strokeColor=#ff0000;fontSize=16;fontStyle=1" vertex="1" parent="1">
          <mxGeometry x="290" y="747" width="30" height="30" as="geometry" />
        </mxCell>
        <mxCell id="DpkDGt5Of3vKLXlmqG1_-113" value="" style="edgeStyle=orthogonalEdgeStyle;html=1;verticalAlign=bottom;endArrow=open;endSize=8;strokeColor=#ff0000;rounded=0;shadow=0;sketch=0;fontSize=16;fontStyle=1" edge="1" source="DpkDGt5Of3vKLXlmqG1_-112" parent="1">
          <mxGeometry relative="1" as="geometry">
            <mxPoint x="305" y="837" as="targetPoint" />
          </mxGeometry>
        </mxCell>
        <mxCell id="DpkDGt5Of3vKLXlmqG1_-114" value="管理员进入博客后台管理页面" style="rounded=1;whiteSpace=wrap;html=1;arcSize=40;fontColor=#000000;fillColor=#ffffc0;strokeColor=#ff0000;fontSize=16;fontStyle=1" vertex="1" parent="1">
          <mxGeometry x="250" y="841" width="120" height="40" as="geometry" />
        </mxCell>
        <mxCell id="DpkDGt5Of3vKLXlmqG1_-115" value="" style="edgeStyle=orthogonalEdgeStyle;html=1;verticalAlign=bottom;endArrow=open;endSize=8;strokeColor=#ff0000;rounded=0;shadow=0;sketch=0;fontSize=16;fontStyle=1" edge="1" source="DpkDGt5Of3vKLXlmqG1_-114" parent="1">
          <mxGeometry relative="1" as="geometry">
            <mxPoint x="310" y="941" as="targetPoint" />
          </mxGeometry>
        </mxCell>
        <mxCell id="DpkDGt5Of3vKLXlmqG1_-116" value="点击文章管理" style="rounded=1;whiteSpace=wrap;html=1;arcSize=40;fontColor=#000000;fillColor=#ffffc0;strokeColor=#ff0000;fontSize=16;fontStyle=1" vertex="1" parent="1">
          <mxGeometry x="250" y="940" width="120" height="40" as="geometry" />
        </mxCell>
        <mxCell id="DpkDGt5Of3vKLXlmqG1_-117" value="" style="edgeStyle=orthogonalEdgeStyle;html=1;verticalAlign=bottom;endArrow=open;endSize=8;strokeColor=#ff0000;rounded=0;shadow=0;sketch=0;fontSize=16;fontStyle=1" edge="1" source="DpkDGt5Of3vKLXlmqG1_-116" parent="1">
          <mxGeometry relative="1" as="geometry">
            <mxPoint x="310" y="1040" as="targetPoint" />
          </mxGeometry>
        </mxCell>
        <mxCell id="DpkDGt5Of3vKLXlmqG1_-118" value="点击文章列表，选择具体文章" style="rounded=1;whiteSpace=wrap;html=1;arcSize=40;fontColor=#000000;fillColor=#ffffc0;strokeColor=#ff0000;fontSize=16;fontStyle=1" vertex="1" parent="1">
          <mxGeometry x="250" y="1039" width="120" height="40" as="geometry" />
        </mxCell>
        <mxCell id="DpkDGt5Of3vKLXlmqG1_-119" value="" style="edgeStyle=orthogonalEdgeStyle;html=1;verticalAlign=bottom;endArrow=open;endSize=8;strokeColor=#ff0000;rounded=0;shadow=0;sketch=0;fontSize=16;fontStyle=1" edge="1" source="DpkDGt5Of3vKLXlmqG1_-118" parent="1">
          <mxGeometry relative="1" as="geometry">
            <mxPoint x="310" y="1139" as="targetPoint" />
          </mxGeometry>
        </mxCell>
        <mxCell id="DpkDGt5Of3vKLXlmqG1_-120" value="删除文章" style="rounded=1;whiteSpace=wrap;html=1;arcSize=40;fontColor=#000000;fillColor=#ffffc0;strokeColor=#ff0000;fontSize=16;fontStyle=1" vertex="1" parent="1">
          <mxGeometry x="250" y="1138" width="120" height="40" as="geometry" />
        </mxCell>
        <mxCell id="DpkDGt5Of3vKLXlmqG1_-121" value="" style="edgeStyle=orthogonalEdgeStyle;html=1;verticalAlign=bottom;endArrow=open;endSize=8;strokeColor=#ff0000;rounded=0;shadow=0;sketch=0;fontSize=16;fontStyle=1" edge="1" source="DpkDGt5Of3vKLXlmqG1_-120" parent="1">
          <mxGeometry relative="1" as="geometry">
            <mxPoint x="310" y="1238" as="targetPoint" />
          </mxGeometry>
        </mxCell>
        <mxCell id="DpkDGt5Of3vKLXlmqG1_-131" style="edgeStyle=orthogonalEdgeStyle;rounded=0;sketch=0;orthogonalLoop=1;jettySize=auto;html=1;exitX=0;exitY=0.5;exitDx=0;exitDy=0;entryX=0.5;entryY=0;entryDx=0;entryDy=0;shadow=0;strokeColor=#FF230A;fontSize=16;endArrow=open;endFill=0;startSize=0;endSize=5;fontStyle=1" edge="1" parent="1" source="DpkDGt5Of3vKLXlmqG1_-123" target="DpkDGt5Of3vKLXlmqG1_-126">
          <mxGeometry relative="1" as="geometry" />
        </mxCell>
        <mxCell id="DpkDGt5Of3vKLXlmqG1_-133" value="确定删除" style="edgeLabel;html=1;align=center;verticalAlign=middle;resizable=0;points=[];fontSize=16;fontStyle=1" vertex="1" connectable="0" parent="DpkDGt5Of3vKLXlmqG1_-131">
          <mxGeometry x="0.0378" y="-2" relative="1" as="geometry">
            <mxPoint x="1" as="offset" />
          </mxGeometry>
        </mxCell>
        <mxCell id="DpkDGt5Of3vKLXlmqG1_-132" style="edgeStyle=orthogonalEdgeStyle;rounded=0;sketch=0;orthogonalLoop=1;jettySize=auto;html=1;exitX=1;exitY=0.5;exitDx=0;exitDy=0;entryX=0.5;entryY=0;entryDx=0;entryDy=0;shadow=0;strokeColor=#FF230A;fontSize=16;endArrow=open;endFill=0;startSize=0;endSize=5;fontStyle=1" edge="1" parent="1" source="DpkDGt5Of3vKLXlmqG1_-123" target="DpkDGt5Of3vKLXlmqG1_-128">
          <mxGeometry relative="1" as="geometry" />
        </mxCell>
        <mxCell id="DpkDGt5Of3vKLXlmqG1_-134" value="取消删除" style="edgeLabel;html=1;align=center;verticalAlign=middle;resizable=0;points=[];fontSize=16;fontStyle=1" vertex="1" connectable="0" parent="DpkDGt5Of3vKLXlmqG1_-132">
          <mxGeometry x="-0.1397" y="2" relative="1" as="geometry">
            <mxPoint x="1" as="offset" />
          </mxGeometry>
        </mxCell>
        <mxCell id="DpkDGt5Of3vKLXlmqG1_-123" value="" style="rhombus;whiteSpace=wrap;html=1;fontColor=#000000;fillColor=#ffffc0;strokeColor=#ff0000;fontSize=16;fontStyle=1" vertex="1" parent="1">
          <mxGeometry x="269" y="1237" width="80" height="40" as="geometry" />
        </mxCell>
        <mxCell id="DpkDGt5Of3vKLXlmqG1_-126" value="删除成功并更新页面" style="rounded=1;whiteSpace=wrap;html=1;arcSize=40;fontColor=#000000;fillColor=#ffffc0;strokeColor=#ff0000;fontSize=16;fontStyle=1" vertex="1" parent="1">
          <mxGeometry x="160" y="1295" width="120" height="40" as="geometry" />
        </mxCell>
        <mxCell id="DpkDGt5Of3vKLXlmqG1_-127" value="" style="html=1;verticalAlign=bottom;endArrow=open;endSize=8;strokeColor=#ff0000;rounded=0;shadow=0;sketch=0;fontSize=16;fontStyle=1" edge="1" source="DpkDGt5Of3vKLXlmqG1_-126" parent="1">
          <mxGeometry relative="1" as="geometry">
            <mxPoint x="274" y="1428" as="targetPoint" />
          </mxGeometry>
        </mxCell>
        <mxCell id="DpkDGt5Of3vKLXlmqG1_-128" value="取消删除" style="rounded=1;whiteSpace=wrap;html=1;arcSize=40;fontColor=#000000;fillColor=#ffffc0;strokeColor=#ff0000;fontSize=16;fontStyle=1" vertex="1" parent="1">
          <mxGeometry x="342" y="1295" width="120" height="40" as="geometry" />
        </mxCell>
        <mxCell id="DpkDGt5Of3vKLXlmqG1_-129" value="" style="html=1;verticalAlign=bottom;endArrow=open;endSize=8;strokeColor=#ff0000;rounded=0;shadow=0;sketch=0;fontSize=16;fontStyle=1" edge="1" source="DpkDGt5Of3vKLXlmqG1_-128" parent="1">
          <mxGeometry relative="1" as="geometry">
            <mxPoint x="327" y="1426" as="targetPoint" />
          </mxGeometry>
        </mxCell>
        <mxCell id="DpkDGt5Of3vKLXlmqG1_-130" value="" style="html=1;points=[];perimeter=orthogonalPerimeter;outlineConnect=0;targetShapes=umlLifeline;portConstraint=eastwest;newEdgeStyle={&quot;edgeStyle&quot;:&quot;elbowEdgeStyle&quot;,&quot;elbow&quot;:&quot;vertical&quot;,&quot;curved&quot;:0,&quot;rounded&quot;:0};fontSize=16;direction=south;strokeColor=#990000;fillColor=#660000;fontStyle=1" vertex="1" parent="1">
          <mxGeometry x="219" y="1429" width="192.5" height="14" as="geometry" />
        </mxCell>
        <mxCell id="DpkDGt5Of3vKLXlmqG1_-135" value="" style="ellipse;html=1;shape=endState;fillColor=#000000;strokeColor=#ff0000;fontSize=16;fontStyle=1" vertex="1" parent="1">
          <mxGeometry x="300.25" y="1486" width="30" height="30" as="geometry" />
        </mxCell>
        <mxCell id="DpkDGt5Of3vKLXlmqG1_-138" value="" style="endArrow=open;endFill=1;endSize=12;html=1;rounded=0;shadow=0;sketch=0;strokeColor=#FF230A;fontSize=16;entryX=0.5;entryY=0;entryDx=0;entryDy=0;fontStyle=1" edge="1" parent="1" source="DpkDGt5Of3vKLXlmqG1_-130" target="DpkDGt5Of3vKLXlmqG1_-135">
          <mxGeometry width="160" relative="1" as="geometry">
            <mxPoint x="252" y="1459" as="sourcePoint" />
            <mxPoint x="412" y="1459" as="targetPoint" />
          </mxGeometry>
        </mxCell>
        <mxCell id="DpkDGt5Of3vKLXlmqG1_-141" value="点击消息管理选择评论管理" style="rounded=1;whiteSpace=wrap;html=1;arcSize=40;fontColor=#000000;fillColor=#ffffc0;strokeColor=#ff0000;fontSize=12;fontStyle=1" vertex="1" parent="1">
          <mxGeometry x="-635" y="848" width="120" height="40" as="geometry" />
        </mxCell>
        <mxCell id="DpkDGt5Of3vKLXlmqG1_-142" value="" style="edgeStyle=orthogonalEdgeStyle;html=1;verticalAlign=bottom;endArrow=open;endSize=8;strokeColor=#ff0000;rounded=0;shadow=0;sketch=0;fontSize=12;fontStyle=1" edge="1" source="DpkDGt5Of3vKLXlmqG1_-141" parent="1">
          <mxGeometry relative="1" as="geometry">
            <mxPoint x="-575" y="948" as="targetPoint" />
          </mxGeometry>
        </mxCell>
        <mxCell id="DpkDGt5Of3vKLXlmqG1_-143" value="选择具体评论" style="rounded=1;whiteSpace=wrap;html=1;arcSize=40;fontColor=#000000;fillColor=#ffffc0;strokeColor=#ff0000;fontSize=12;fontStyle=1" vertex="1" parent="1">
          <mxGeometry x="-635" y="948" width="120" height="40" as="geometry" />
        </mxCell>
        <mxCell id="DpkDGt5Of3vKLXlmqG1_-144" value="" style="edgeStyle=orthogonalEdgeStyle;html=1;verticalAlign=bottom;endArrow=open;endSize=8;strokeColor=#ff0000;rounded=0;shadow=0;sketch=0;fontSize=12;fontStyle=1" edge="1" source="DpkDGt5Of3vKLXlmqG1_-143" parent="1">
          <mxGeometry relative="1" as="geometry">
            <mxPoint x="-575" y="1048" as="targetPoint" />
          </mxGeometry>
        </mxCell>
        <mxCell id="DpkDGt5Of3vKLXlmqG1_-145" value="删除评论" style="rounded=1;whiteSpace=wrap;html=1;arcSize=40;fontColor=#000000;fillColor=#ffffc0;strokeColor=#ff0000;fontSize=12;fontStyle=1" vertex="1" parent="1">
          <mxGeometry x="-635" y="1049" width="120" height="40" as="geometry" />
        </mxCell>
        <mxCell id="DpkDGt5Of3vKLXlmqG1_-146" value="" style="edgeStyle=orthogonalEdgeStyle;html=1;verticalAlign=bottom;endArrow=open;endSize=8;strokeColor=#ff0000;rounded=0;shadow=0;sketch=0;fontSize=12;fontStyle=1" edge="1" source="DpkDGt5Of3vKLXlmqG1_-145" parent="1">
          <mxGeometry relative="1" as="geometry">
            <mxPoint x="-575" y="1149" as="targetPoint" />
          </mxGeometry>
        </mxCell>
        <mxCell id="DpkDGt5Of3vKLXlmqG1_-147" value="" style="ellipse;html=1;shape=endState;fillColor=#000000;strokeColor=#ff0000;fontSize=12;fontStyle=1" vertex="1" parent="1">
          <mxGeometry x="-590" y="1149" width="30" height="30" as="geometry" />
        </mxCell>
        <mxCell id="DpkDGt5Of3vKLXlmqG1_-148" value="" style="ellipse;html=1;shape=startState;fillColor=#000000;strokeColor=#ff0000;fontSize=13;fontStyle=1" vertex="1" parent="1">
          <mxGeometry x="-635" y="1339" width="30" height="30" as="geometry" />
        </mxCell>
        <mxCell id="DpkDGt5Of3vKLXlmqG1_-149" value="" style="edgeStyle=orthogonalEdgeStyle;html=1;verticalAlign=bottom;endArrow=open;endSize=8;strokeColor=#ff0000;rounded=0;shadow=0;sketch=0;fontSize=13;fontStyle=1" edge="1" source="DpkDGt5Of3vKLXlmqG1_-148" parent="1">
          <mxGeometry relative="1" as="geometry">
            <mxPoint x="-620" y="1429" as="targetPoint" />
          </mxGeometry>
        </mxCell>
        <mxCell id="DpkDGt5Of3vKLXlmqG1_-150" value="管理员进入博客后台管理页面" style="rounded=1;whiteSpace=wrap;html=1;arcSize=40;fontColor=#000000;fillColor=#ffffc0;strokeColor=#ff0000;fontSize=13;fontStyle=1" vertex="1" parent="1">
          <mxGeometry x="-681" y="1429" width="120" height="40" as="geometry" />
        </mxCell>
        <mxCell id="DpkDGt5Of3vKLXlmqG1_-151" value="" style="edgeStyle=orthogonalEdgeStyle;html=1;verticalAlign=bottom;endArrow=open;endSize=8;strokeColor=#ff0000;rounded=0;shadow=0;sketch=0;fontSize=13;fontStyle=1" edge="1" source="DpkDGt5Of3vKLXlmqG1_-150" parent="1">
          <mxGeometry relative="1" as="geometry">
            <mxPoint x="-620" y="1525" as="targetPoint" />
          </mxGeometry>
        </mxCell>
        <mxCell id="DpkDGt5Of3vKLXlmqG1_-152" value="选择说说管理" style="rounded=1;whiteSpace=wrap;html=1;arcSize=40;fontColor=#000000;fillColor=#ffffc0;strokeColor=#ff0000;fontSize=13;fontStyle=1" vertex="1" parent="1">
          <mxGeometry x="-680" y="1524" width="120" height="40" as="geometry" />
        </mxCell>
        <mxCell id="DpkDGt5Of3vKLXlmqG1_-153" value="" style="edgeStyle=orthogonalEdgeStyle;html=1;verticalAlign=bottom;endArrow=open;endSize=8;strokeColor=#ff0000;rounded=0;shadow=0;sketch=0;fontSize=13;fontStyle=1" edge="1" source="DpkDGt5Of3vKLXlmqG1_-152" parent="1">
          <mxGeometry relative="1" as="geometry">
            <mxPoint x="-620" y="1624" as="targetPoint" />
          </mxGeometry>
        </mxCell>
        <mxCell id="DpkDGt5Of3vKLXlmqG1_-155" value="管理员进入博客后台管理页面" style="rounded=1;whiteSpace=wrap;html=1;arcSize=40;fontColor=#000000;fillColor=#ffffc0;strokeColor=#ff0000;fontSize=12;fontStyle=1" vertex="1" parent="1">
          <mxGeometry x="-635" y="747" width="120" height="40" as="geometry" />
        </mxCell>
        <mxCell id="DpkDGt5Of3vKLXlmqG1_-156" value="" style="edgeStyle=orthogonalEdgeStyle;html=1;verticalAlign=bottom;endArrow=open;endSize=8;strokeColor=#ff0000;rounded=0;shadow=0;sketch=0;fontSize=12;fontStyle=1" edge="1" source="DpkDGt5Of3vKLXlmqG1_-155" parent="1">
          <mxGeometry relative="1" as="geometry">
            <mxPoint x="-575" y="847" as="targetPoint" />
          </mxGeometry>
        </mxCell>
        <mxCell id="DpkDGt5Of3vKLXlmqG1_-157" value="" style="ellipse;html=1;shape=startState;fillColor=#000000;strokeColor=#ff0000;fontSize=12;" vertex="1" parent="1">
          <mxGeometry x="-590" y="653" width="30" height="30" as="geometry" />
        </mxCell>
        <mxCell id="DpkDGt5Of3vKLXlmqG1_-158" value="" style="edgeStyle=orthogonalEdgeStyle;html=1;verticalAlign=bottom;endArrow=open;endSize=8;strokeColor=#ff0000;rounded=0;shadow=0;sketch=0;fontSize=12;fontStyle=1" edge="1" source="DpkDGt5Of3vKLXlmqG1_-157" parent="1">
          <mxGeometry relative="1" as="geometry">
            <mxPoint x="-575" y="743" as="targetPoint" />
          </mxGeometry>
        </mxCell>
        <mxCell id="DpkDGt5Of3vKLXlmqG1_-159" value="普通用户登录" style="rounded=1;whiteSpace=wrap;html=1;arcSize=40;fontColor=#000000;fillColor=#ffffc0;strokeColor=#ff0000;fontSize=16;fontStyle=1" vertex="1" parent="1">
          <mxGeometry x="967" y="146" width="120" height="40" as="geometry" />
        </mxCell>
        <mxCell id="DpkDGt5Of3vKLXlmqG1_-160" value="" style="edgeStyle=orthogonalEdgeStyle;html=1;verticalAlign=bottom;endArrow=open;endSize=8;strokeColor=#ff0000;rounded=0;shadow=0;sketch=0;fontSize=16;fontStyle=1" edge="1" source="DpkDGt5Of3vKLXlmqG1_-159" parent="1">
          <mxGeometry relative="1" as="geometry">
            <mxPoint x="1027" y="246" as="targetPoint" />
          </mxGeometry>
        </mxCell>
        <mxCell id="DpkDGt5Of3vKLXlmqG1_-161" value="" style="ellipse;html=1;shape=startState;fillColor=#000000;strokeColor=#ff0000;fontSize=16;fontStyle=1" vertex="1" parent="1">
          <mxGeometry x="1012" y="56" width="30" height="30" as="geometry" />
        </mxCell>
        <mxCell id="DpkDGt5Of3vKLXlmqG1_-162" value="" style="edgeStyle=orthogonalEdgeStyle;html=1;verticalAlign=bottom;endArrow=open;endSize=8;strokeColor=#ff0000;rounded=0;shadow=0;sketch=0;fontSize=16;fontStyle=1" edge="1" source="DpkDGt5Of3vKLXlmqG1_-161" parent="1">
          <mxGeometry relative="1" as="geometry">
            <mxPoint x="1027" y="146" as="targetPoint" />
          </mxGeometry>
        </mxCell>
        <mxCell id="DpkDGt5Of3vKLXlmqG1_-164" value="点击发布说说并编写说说" style="rounded=1;whiteSpace=wrap;html=1;arcSize=40;fontColor=#000000;fillColor=#ffffc0;strokeColor=#ff0000;fontSize=13;fontStyle=1" vertex="1" parent="1">
          <mxGeometry x="-680" y="1624" width="120" height="40" as="geometry" />
        </mxCell>
        <mxCell id="DpkDGt5Of3vKLXlmqG1_-165" value="" style="edgeStyle=orthogonalEdgeStyle;html=1;verticalAlign=bottom;endArrow=open;endSize=8;strokeColor=#ff0000;rounded=0;shadow=0;sketch=0;fontSize=13;fontStyle=1" edge="1" source="DpkDGt5Of3vKLXlmqG1_-164" parent="1">
          <mxGeometry relative="1" as="geometry">
            <mxPoint x="-620" y="1724" as="targetPoint" />
          </mxGeometry>
        </mxCell>
        <mxCell id="DpkDGt5Of3vKLXlmqG1_-166" value="发布说说" style="rounded=1;whiteSpace=wrap;html=1;arcSize=40;fontColor=#000000;fillColor=#ffffc0;strokeColor=#ff0000;fontSize=13;fontStyle=1" vertex="1" parent="1">
          <mxGeometry x="-681" y="1724" width="120" height="40" as="geometry" />
        </mxCell>
        <mxCell id="DpkDGt5Of3vKLXlmqG1_-167" value="" style="edgeStyle=orthogonalEdgeStyle;html=1;verticalAlign=bottom;endArrow=open;endSize=8;strokeColor=#ff0000;rounded=0;shadow=0;sketch=0;fontSize=13;fontStyle=1" edge="1" source="DpkDGt5Of3vKLXlmqG1_-166" parent="1" target="DpkDGt5Of3vKLXlmqG1_-168">
          <mxGeometry relative="1" as="geometry">
            <mxPoint x="-621" y="1824" as="targetPoint" />
          </mxGeometry>
        </mxCell>
        <mxCell id="DpkDGt5Of3vKLXlmqG1_-168" value="" style="ellipse;html=1;shape=endState;fillColor=#000000;strokeColor=#ff0000;fontSize=13;fontStyle=1" vertex="1" parent="1">
          <mxGeometry x="-636" y="1809" width="30" height="30" as="geometry" />
        </mxCell>
        <mxCell id="DpkDGt5Of3vKLXlmqG1_-173" value="管理员进入博客后台管理页面" style="rounded=1;whiteSpace=wrap;html=1;arcSize=40;fontColor=#000000;fillColor=#ffffc0;strokeColor=#ff0000;fontSize=13;fontStyle=1" vertex="1" parent="1">
          <mxGeometry x="-380" y="1429" width="120" height="40" as="geometry" />
        </mxCell>
        <mxCell id="DpkDGt5Of3vKLXlmqG1_-174" value="" style="edgeStyle=orthogonalEdgeStyle;html=1;verticalAlign=bottom;endArrow=open;endSize=8;strokeColor=#ff0000;rounded=0;shadow=0;sketch=0;fontSize=13;fontStyle=1" edge="1" source="DpkDGt5Of3vKLXlmqG1_-173" parent="1">
          <mxGeometry relative="1" as="geometry">
            <mxPoint x="-320" y="1529" as="targetPoint" />
          </mxGeometry>
        </mxCell>
        <mxCell id="DpkDGt5Of3vKLXlmqG1_-175" value="点击用户管理选择用户列表" style="rounded=1;whiteSpace=wrap;html=1;arcSize=40;fontColor=#000000;fillColor=#ffffc0;strokeColor=#ff0000;fontSize=13;fontStyle=1" vertex="1" parent="1">
          <mxGeometry x="-380" y="1530" width="120" height="40" as="geometry" />
        </mxCell>
        <mxCell id="DpkDGt5Of3vKLXlmqG1_-176" value="" style="edgeStyle=orthogonalEdgeStyle;html=1;verticalAlign=bottom;endArrow=open;endSize=8;strokeColor=#ff0000;rounded=0;shadow=0;sketch=0;fontSize=13;fontStyle=1" edge="1" source="DpkDGt5Of3vKLXlmqG1_-175" parent="1">
          <mxGeometry relative="1" as="geometry">
            <mxPoint x="-320" y="1630" as="targetPoint" />
          </mxGeometry>
        </mxCell>
        <mxCell id="DpkDGt5Of3vKLXlmqG1_-177" value="选择具体用户，修改用户角色" style="rounded=1;whiteSpace=wrap;html=1;arcSize=40;fontColor=#000000;fillColor=#ffffc0;strokeColor=#ff0000;fontSize=13;fontStyle=1" vertex="1" parent="1">
          <mxGeometry x="-380" y="1631" width="120" height="40" as="geometry" />
        </mxCell>
        <mxCell id="DpkDGt5Of3vKLXlmqG1_-178" value="" style="edgeStyle=orthogonalEdgeStyle;html=1;verticalAlign=bottom;endArrow=open;endSize=8;strokeColor=#ff0000;rounded=0;shadow=0;sketch=0;fontSize=13;fontStyle=1" edge="1" source="DpkDGt5Of3vKLXlmqG1_-177" parent="1" target="DpkDGt5Of3vKLXlmqG1_-179">
          <mxGeometry relative="1" as="geometry">
            <mxPoint x="-320" y="1731" as="targetPoint" />
          </mxGeometry>
        </mxCell>
        <mxCell id="DpkDGt5Of3vKLXlmqG1_-179" value="" style="ellipse;html=1;shape=endState;fillColor=#000000;strokeColor=#ff0000;fontSize=13;fontStyle=1" vertex="1" parent="1">
          <mxGeometry x="-335" y="1716" width="30" height="30" as="geometry" />
        </mxCell>
        <mxCell id="DpkDGt5Of3vKLXlmqG1_-183" value="" style="ellipse;html=1;shape=startState;fillColor=#000000;strokeColor=#ff0000;fontSize=13;fontStyle=1" vertex="1" parent="1">
          <mxGeometry x="-335" y="1342" width="30" height="30" as="geometry" />
        </mxCell>
        <mxCell id="DpkDGt5Of3vKLXlmqG1_-184" value="" style="edgeStyle=orthogonalEdgeStyle;html=1;verticalAlign=bottom;endArrow=open;endSize=8;strokeColor=#ff0000;rounded=0;shadow=0;sketch=0;fontSize=13;fontStyle=1" edge="1" source="DpkDGt5Of3vKLXlmqG1_-183" parent="1">
          <mxGeometry relative="1" as="geometry">
            <mxPoint x="-320" y="1432" as="targetPoint" />
          </mxGeometry>
        </mxCell>
        <mxCell id="DpkDGt5Of3vKLXlmqG1_-185" value="" style="ellipse;html=1;shape=startState;fillColor=#000000;strokeColor=#ff0000;fontSize=13;fontStyle=1" vertex="1" parent="1">
          <mxGeometry x="-1612" y="1406" width="30" height="30" as="geometry" />
        </mxCell>
        <mxCell id="DpkDGt5Of3vKLXlmqG1_-186" value="" style="edgeStyle=orthogonalEdgeStyle;html=1;verticalAlign=bottom;endArrow=open;endSize=8;strokeColor=#ff0000;rounded=0;shadow=0;sketch=0;fontSize=13;fontStyle=1" edge="1" source="DpkDGt5Of3vKLXlmqG1_-185" parent="1">
          <mxGeometry relative="1" as="geometry">
            <mxPoint x="-1597" y="1496" as="targetPoint" />
          </mxGeometry>
        </mxCell>
        <mxCell id="DpkDGt5Of3vKLXlmqG1_-187" value="管理员登录博客后台管理页面" style="rounded=1;whiteSpace=wrap;html=1;arcSize=40;fontColor=#000000;fillColor=#ffffc0;strokeColor=#ff0000;fontSize=13;fontStyle=1" vertex="1" parent="1">
          <mxGeometry x="-1657" y="1498" width="120" height="40" as="geometry" />
        </mxCell>
        <mxCell id="DpkDGt5Of3vKLXlmqG1_-188" value="" style="edgeStyle=orthogonalEdgeStyle;html=1;verticalAlign=bottom;endArrow=open;endSize=8;strokeColor=#ff0000;rounded=0;shadow=0;sketch=0;fontSize=13;fontStyle=1" edge="1" source="DpkDGt5Of3vKLXlmqG1_-187" parent="1">
          <mxGeometry relative="1" as="geometry">
            <mxPoint x="-1597" y="1598" as="targetPoint" />
          </mxGeometry>
        </mxCell>
        <mxCell id="DpkDGt5Of3vKLXlmqG1_-189" value="点击权限管理，选择角色管理" style="rounded=1;whiteSpace=wrap;html=1;arcSize=40;fontColor=#000000;fillColor=#ffffc0;strokeColor=#ff0000;fontSize=13;fontStyle=1" vertex="1" parent="1">
          <mxGeometry x="-1655" y="1597" width="120" height="40" as="geometry" />
        </mxCell>
        <mxCell id="DpkDGt5Of3vKLXlmqG1_-190" value="" style="edgeStyle=orthogonalEdgeStyle;html=1;verticalAlign=bottom;endArrow=open;endSize=8;strokeColor=#ff0000;rounded=0;shadow=0;sketch=0;fontSize=13;fontStyle=1" edge="1" source="DpkDGt5Of3vKLXlmqG1_-189" parent="1">
          <mxGeometry relative="1" as="geometry">
            <mxPoint x="-1595" y="1697" as="targetPoint" />
          </mxGeometry>
        </mxCell>
        <mxCell id="DpkDGt5Of3vKLXlmqG1_-191" value="选择具体用户修改角色" style="rounded=1;whiteSpace=wrap;html=1;arcSize=40;fontColor=#000000;fillColor=#ffffc0;strokeColor=#ff0000;fontSize=13;fontStyle=1" vertex="1" parent="1">
          <mxGeometry x="-1657" y="1694" width="120" height="40" as="geometry" />
        </mxCell>
        <mxCell id="DpkDGt5Of3vKLXlmqG1_-192" value="" style="edgeStyle=orthogonalEdgeStyle;html=1;verticalAlign=bottom;endArrow=open;endSize=8;strokeColor=#ff0000;rounded=0;shadow=0;sketch=0;fontSize=13;fontStyle=1" edge="1" source="DpkDGt5Of3vKLXlmqG1_-191" parent="1" target="DpkDGt5Of3vKLXlmqG1_-194">
          <mxGeometry relative="1" as="geometry">
            <mxPoint x="-1597" y="1794" as="targetPoint" />
          </mxGeometry>
        </mxCell>
        <mxCell id="DpkDGt5Of3vKLXlmqG1_-194" value="" style="ellipse;html=1;shape=endState;fillColor=#000000;strokeColor=#ff0000;fontSize=13;fontStyle=1" vertex="1" parent="1">
          <mxGeometry x="-1612" y="1779" width="30" height="30" as="geometry" />
        </mxCell>
        <mxCell id="DpkDGt5Of3vKLXlmqG1_-195" value="" style="ellipse;html=1;shape=startState;fillColor=#000000;strokeColor=#ff0000;fontSize=13;fontStyle=1" vertex="1" parent="1">
          <mxGeometry x="-1346" y="1406" width="30" height="30" as="geometry" />
        </mxCell>
        <mxCell id="DpkDGt5Of3vKLXlmqG1_-196" value="" style="edgeStyle=orthogonalEdgeStyle;html=1;verticalAlign=bottom;endArrow=open;endSize=8;strokeColor=#ff0000;rounded=0;shadow=0;sketch=0;fontSize=13;fontStyle=1" edge="1" source="DpkDGt5Of3vKLXlmqG1_-195" parent="1">
          <mxGeometry relative="1" as="geometry">
            <mxPoint x="-1331" y="1496" as="targetPoint" />
          </mxGeometry>
        </mxCell>
        <mxCell id="DpkDGt5Of3vKLXlmqG1_-197" value="管理员登录博客后台管理页面" style="rounded=1;whiteSpace=wrap;html=1;arcSize=40;fontColor=#000000;fillColor=#ffffc0;strokeColor=#ff0000;fontSize=13;fontStyle=1" vertex="1" parent="1">
          <mxGeometry x="-1391" y="1494" width="120" height="40" as="geometry" />
        </mxCell>
        <mxCell id="DpkDGt5Of3vKLXlmqG1_-198" value="" style="edgeStyle=orthogonalEdgeStyle;html=1;verticalAlign=bottom;endArrow=open;endSize=8;strokeColor=#ff0000;rounded=0;shadow=0;sketch=0;fontSize=13;fontStyle=1" edge="1" source="DpkDGt5Of3vKLXlmqG1_-197" parent="1">
          <mxGeometry relative="1" as="geometry">
            <mxPoint x="-1331" y="1594" as="targetPoint" />
          </mxGeometry>
        </mxCell>
        <mxCell id="DpkDGt5Of3vKLXlmqG1_-199" value="点击权限管理，选择角色管理" style="rounded=1;whiteSpace=wrap;html=1;arcSize=40;fontColor=#000000;fillColor=#ffffc0;strokeColor=#ff0000;fontSize=13;fontStyle=1" vertex="1" parent="1">
          <mxGeometry x="-1394" y="1594" width="120" height="40" as="geometry" />
        </mxCell>
        <mxCell id="DpkDGt5Of3vKLXlmqG1_-200" value="" style="edgeStyle=orthogonalEdgeStyle;html=1;verticalAlign=bottom;endArrow=open;endSize=8;strokeColor=#ff0000;rounded=0;shadow=0;sketch=0;fontSize=13;fontStyle=1" edge="1" source="DpkDGt5Of3vKLXlmqG1_-199" parent="1">
          <mxGeometry relative="1" as="geometry">
            <mxPoint x="-1334" y="1694" as="targetPoint" />
          </mxGeometry>
        </mxCell>
        <mxCell id="DpkDGt5Of3vKLXlmqG1_-201" value="选择新增角色，输入角色名字" style="rounded=1;whiteSpace=wrap;html=1;arcSize=40;fontColor=#000000;fillColor=#ffffc0;strokeColor=#ff0000;fontSize=13;fontStyle=1" vertex="1" parent="1">
          <mxGeometry x="-1394" y="1694" width="120" height="40" as="geometry" />
        </mxCell>
        <mxCell id="DpkDGt5Of3vKLXlmqG1_-202" value="" style="edgeStyle=orthogonalEdgeStyle;html=1;verticalAlign=bottom;endArrow=open;endSize=8;strokeColor=#ff0000;rounded=0;shadow=0;sketch=0;fontSize=13;fontStyle=1" edge="1" source="DpkDGt5Of3vKLXlmqG1_-201" parent="1">
          <mxGeometry relative="1" as="geometry">
            <mxPoint x="-1334" y="1798" as="targetPoint" />
          </mxGeometry>
        </mxCell>
        <mxCell id="DpkDGt5Of3vKLXlmqG1_-203" value="设置角色权限" style="rounded=1;whiteSpace=wrap;html=1;arcSize=40;fontColor=#000000;fillColor=#ffffc0;strokeColor=#ff0000;fontSize=13;fontStyle=1" vertex="1" parent="1">
          <mxGeometry x="-1394" y="1799" width="120" height="40" as="geometry" />
        </mxCell>
        <mxCell id="DpkDGt5Of3vKLXlmqG1_-204" value="" style="edgeStyle=orthogonalEdgeStyle;html=1;verticalAlign=bottom;endArrow=open;endSize=8;strokeColor=#ff0000;rounded=0;shadow=0;sketch=0;fontSize=13;fontStyle=1" edge="1" source="DpkDGt5Of3vKLXlmqG1_-203" parent="1">
          <mxGeometry relative="1" as="geometry">
            <mxPoint x="-1334" y="1894" as="targetPoint" />
          </mxGeometry>
        </mxCell>
        <mxCell id="DpkDGt5Of3vKLXlmqG1_-207" value="" style="ellipse;html=1;shape=endState;fillColor=#000000;strokeColor=#ff0000;fontSize=13;fontStyle=1" vertex="1" parent="1">
          <mxGeometry x="-1349" y="1892" width="30" height="30" as="geometry" />
        </mxCell>
        <mxCell id="DpkDGt5Of3vKLXlmqG1_-208" value="" style="ellipse;html=1;shape=startState;fillColor=#000000;strokeColor=#ff0000;fontSize=13;fontStyle=1" vertex="1" parent="1">
          <mxGeometry x="-1059" y="1411" width="30" height="30" as="geometry" />
        </mxCell>
        <mxCell id="DpkDGt5Of3vKLXlmqG1_-209" value="" style="edgeStyle=orthogonalEdgeStyle;html=1;verticalAlign=bottom;endArrow=open;endSize=8;strokeColor=#ff0000;rounded=0;shadow=0;sketch=0;fontSize=13;fontStyle=1" edge="1" source="DpkDGt5Of3vKLXlmqG1_-208" parent="1">
          <mxGeometry relative="1" as="geometry">
            <mxPoint x="-1044" y="1501" as="targetPoint" />
          </mxGeometry>
        </mxCell>
        <mxCell id="DpkDGt5Of3vKLXlmqG1_-210" value="管理员登录进入博客后台管理页面" style="rounded=1;whiteSpace=wrap;html=1;arcSize=40;fontColor=#000000;fillColor=#ffffc0;strokeColor=#ff0000;fontSize=13;fontStyle=1" vertex="1" parent="1">
          <mxGeometry x="-1104" y="1502" width="120" height="40" as="geometry" />
        </mxCell>
        <mxCell id="DpkDGt5Of3vKLXlmqG1_-211" value="" style="edgeStyle=orthogonalEdgeStyle;html=1;verticalAlign=bottom;endArrow=open;endSize=8;strokeColor=#ff0000;rounded=0;shadow=0;sketch=0;fontSize=13;fontStyle=1" edge="1" source="DpkDGt5Of3vKLXlmqG1_-210" parent="1">
          <mxGeometry relative="1" as="geometry">
            <mxPoint x="-1044" y="1605" as="targetPoint" />
          </mxGeometry>
        </mxCell>
        <mxCell id="DpkDGt5Of3vKLXlmqG1_-212" value="点击系统管理，选择网站管理" style="rounded=1;whiteSpace=wrap;html=1;arcSize=40;fontColor=#000000;fillColor=#ffffc0;strokeColor=#ff0000;fontSize=13;fontStyle=1" vertex="1" parent="1">
          <mxGeometry x="-1102" y="1606" width="120" height="40" as="geometry" />
        </mxCell>
        <mxCell id="DpkDGt5Of3vKLXlmqG1_-213" value="" style="edgeStyle=orthogonalEdgeStyle;html=1;verticalAlign=bottom;endArrow=open;endSize=8;strokeColor=#ff0000;rounded=0;shadow=0;sketch=0;fontSize=13;fontStyle=1" edge="1" source="DpkDGt5Of3vKLXlmqG1_-212" parent="1">
          <mxGeometry relative="1" as="geometry">
            <mxPoint x="-1042" y="1706" as="targetPoint" />
          </mxGeometry>
        </mxCell>
        <mxCell id="DpkDGt5Of3vKLXlmqG1_-214" value="设置网站信息" style="rounded=1;whiteSpace=wrap;html=1;arcSize=40;fontColor=#000000;fillColor=#ffffc0;strokeColor=#ff0000;fontSize=13;fontStyle=1" vertex="1" parent="1">
          <mxGeometry x="-1102" y="1705" width="120" height="40" as="geometry" />
        </mxCell>
        <mxCell id="DpkDGt5Of3vKLXlmqG1_-215" value="" style="edgeStyle=orthogonalEdgeStyle;html=1;verticalAlign=bottom;endArrow=open;endSize=8;strokeColor=#ff0000;rounded=0;shadow=0;sketch=0;fontSize=13;fontStyle=1" edge="1" source="DpkDGt5Of3vKLXlmqG1_-214" parent="1">
          <mxGeometry relative="1" as="geometry">
            <mxPoint x="-1042" y="1805" as="targetPoint" />
          </mxGeometry>
        </mxCell>
        <mxCell id="DpkDGt5Of3vKLXlmqG1_-216" value="" style="ellipse;html=1;shape=endState;fillColor=#000000;strokeColor=#ff0000;fontSize=13;fontStyle=1" vertex="1" parent="1">
          <mxGeometry x="-1057" y="1804" width="30" height="30" as="geometry" />
        </mxCell>
        <mxCell id="DpkDGt5Of3vKLXlmqG1_-217" value="" style="ellipse;html=1;shape=startState;fillColor=#000000;strokeColor=#ff0000;fontSize=13;fontStyle=1" vertex="1" parent="1">
          <mxGeometry x="-1349" y="1999" width="30" height="30" as="geometry" />
        </mxCell>
        <mxCell id="DpkDGt5Of3vKLXlmqG1_-218" value="" style="edgeStyle=orthogonalEdgeStyle;html=1;verticalAlign=bottom;endArrow=open;endSize=8;strokeColor=#ff0000;rounded=0;shadow=0;sketch=0;fontSize=13;fontStyle=1" edge="1" source="DpkDGt5Of3vKLXlmqG1_-217" parent="1">
          <mxGeometry relative="1" as="geometry">
            <mxPoint x="-1334" y="2089" as="targetPoint" />
          </mxGeometry>
        </mxCell>
        <mxCell id="DpkDGt5Of3vKLXlmqG1_-219" value="管理员登录博客后台管理页面" style="rounded=1;whiteSpace=wrap;html=1;arcSize=40;fontColor=#000000;fillColor=#ffffc0;strokeColor=#ff0000;fontSize=13;fontStyle=1" vertex="1" parent="1">
          <mxGeometry x="-1394" y="2087" width="120" height="40" as="geometry" />
        </mxCell>
        <mxCell id="DpkDGt5Of3vKLXlmqG1_-220" value="" style="edgeStyle=orthogonalEdgeStyle;html=1;verticalAlign=bottom;endArrow=open;endSize=8;strokeColor=#ff0000;rounded=0;shadow=0;sketch=0;fontSize=13;fontStyle=1" edge="1" source="DpkDGt5Of3vKLXlmqG1_-219" parent="1">
          <mxGeometry relative="1" as="geometry">
            <mxPoint x="-1334" y="2187" as="targetPoint" />
          </mxGeometry>
        </mxCell>
        <mxCell id="DpkDGt5Of3vKLXlmqG1_-221" value="点击相册列表，选择具体相册" style="rounded=1;whiteSpace=wrap;html=1;arcSize=40;fontColor=#000000;fillColor=#ffffc0;strokeColor=#ff0000;fontSize=13;fontStyle=1" vertex="1" parent="1">
          <mxGeometry x="-1396" y="2185" width="120" height="40" as="geometry" />
        </mxCell>
        <mxCell id="DpkDGt5Of3vKLXlmqG1_-222" value="" style="edgeStyle=orthogonalEdgeStyle;html=1;verticalAlign=bottom;endArrow=open;endSize=8;strokeColor=#ff0000;rounded=0;shadow=0;sketch=0;fontSize=13;fontStyle=1" edge="1" source="DpkDGt5Of3vKLXlmqG1_-221" parent="1">
          <mxGeometry relative="1" as="geometry">
            <mxPoint x="-1336" y="2285" as="targetPoint" />
          </mxGeometry>
        </mxCell>
        <mxCell id="DpkDGt5Of3vKLXlmqG1_-223" value="上传照片" style="rounded=1;whiteSpace=wrap;html=1;arcSize=40;fontColor=#000000;fillColor=#ffffc0;strokeColor=#ff0000;fontSize=13;fontStyle=1" vertex="1" parent="1">
          <mxGeometry x="-1396" y="2283" width="120" height="40" as="geometry" />
        </mxCell>
        <mxCell id="DpkDGt5Of3vKLXlmqG1_-224" value="" style="edgeStyle=orthogonalEdgeStyle;html=1;verticalAlign=bottom;endArrow=open;endSize=8;strokeColor=#ff0000;rounded=0;shadow=0;sketch=0;fontSize=13;fontStyle=1" edge="1" source="DpkDGt5Of3vKLXlmqG1_-223" parent="1" target="DpkDGt5Of3vKLXlmqG1_-225">
          <mxGeometry relative="1" as="geometry">
            <mxPoint x="-1336" y="2383" as="targetPoint" />
          </mxGeometry>
        </mxCell>
        <mxCell id="DpkDGt5Of3vKLXlmqG1_-225" value="" style="ellipse;html=1;shape=endState;fillColor=#000000;strokeColor=#ff0000;fontSize=13;fontStyle=1" vertex="1" parent="1">
          <mxGeometry x="-1351" y="2368" width="30" height="30" as="geometry" />
        </mxCell>
        <mxCell id="DpkDGt5Of3vKLXlmqG1_-226" value="" style="ellipse;html=1;shape=startState;fillColor=#000000;strokeColor=#ff0000;fontSize=13;fontStyle=1" vertex="1" parent="1">
          <mxGeometry x="-1043" y="1999" width="30" height="30" as="geometry" />
        </mxCell>
        <mxCell id="DpkDGt5Of3vKLXlmqG1_-227" value="" style="edgeStyle=orthogonalEdgeStyle;html=1;verticalAlign=bottom;endArrow=open;endSize=8;strokeColor=#ff0000;rounded=0;shadow=0;sketch=0;fontSize=13;fontStyle=1" edge="1" source="DpkDGt5Of3vKLXlmqG1_-226" parent="1">
          <mxGeometry relative="1" as="geometry">
            <mxPoint x="-1028" y="2089" as="targetPoint" />
          </mxGeometry>
        </mxCell>
        <mxCell id="DpkDGt5Of3vKLXlmqG1_-228" value="管理员登录博客后台管理页面" style="rounded=1;whiteSpace=wrap;html=1;arcSize=40;fontColor=#000000;fillColor=#ffffc0;strokeColor=#ff0000;fontSize=13;fontStyle=1" vertex="1" parent="1">
          <mxGeometry x="-1088" y="2087" width="120" height="40" as="geometry" />
        </mxCell>
        <mxCell id="DpkDGt5Of3vKLXlmqG1_-229" value="" style="edgeStyle=orthogonalEdgeStyle;html=1;verticalAlign=bottom;endArrow=open;endSize=8;strokeColor=#ff0000;rounded=0;shadow=0;sketch=0;fontSize=13;fontStyle=1" edge="1" source="DpkDGt5Of3vKLXlmqG1_-228" parent="1">
          <mxGeometry relative="1" as="geometry">
            <mxPoint x="-1028" y="2187" as="targetPoint" />
          </mxGeometry>
        </mxCell>
        <mxCell id="DpkDGt5Of3vKLXlmqG1_-230" value="选择日志管理" style="rounded=1;whiteSpace=wrap;html=1;arcSize=40;fontColor=#000000;fillColor=#ffffc0;strokeColor=#ff0000;fontSize=13;fontStyle=1" vertex="1" parent="1">
          <mxGeometry x="-1088" y="2185" width="120" height="40" as="geometry" />
        </mxCell>
        <mxCell id="DpkDGt5Of3vKLXlmqG1_-231" value="" style="edgeStyle=orthogonalEdgeStyle;html=1;verticalAlign=bottom;endArrow=open;endSize=8;strokeColor=#ff0000;rounded=0;shadow=0;sketch=0;fontSize=13;fontStyle=1" edge="1" source="DpkDGt5Of3vKLXlmqG1_-230" parent="1">
          <mxGeometry relative="1" as="geometry">
            <mxPoint x="-1028" y="2291" as="targetPoint" />
          </mxGeometry>
        </mxCell>
        <mxCell id="DpkDGt5Of3vKLXlmqG1_-232" value="查看操作日志或者异常日志" style="rounded=1;whiteSpace=wrap;html=1;arcSize=40;fontColor=#000000;fillColor=#ffffc0;strokeColor=#ff0000;fontSize=13;fontStyle=1" vertex="1" parent="1">
          <mxGeometry x="-1088" y="2290" width="120" height="40" as="geometry" />
        </mxCell>
        <mxCell id="DpkDGt5Of3vKLXlmqG1_-233" value="" style="edgeStyle=orthogonalEdgeStyle;html=1;verticalAlign=bottom;endArrow=open;endSize=8;strokeColor=#ff0000;rounded=0;shadow=0;sketch=0;fontSize=13;fontStyle=1" edge="1" source="DpkDGt5Of3vKLXlmqG1_-232" parent="1">
          <mxGeometry relative="1" as="geometry">
            <mxPoint x="-1028" y="2390" as="targetPoint" />
          </mxGeometry>
        </mxCell>
        <mxCell id="DpkDGt5Of3vKLXlmqG1_-234" value="" style="ellipse;html=1;shape=endState;fillColor=#000000;strokeColor=#ff0000;fontSize=13;fontStyle=1" vertex="1" parent="1">
          <mxGeometry x="-1043" y="2387" width="30" height="30" as="geometry" />
        </mxCell>
        <mxCell id="DpkDGt5Of3vKLXlmqG1_-236" value="&lt;pre style=&quot;font-size: 11px;&quot;&gt;&lt;pre style=&quot;font-size: 11px;&quot;&gt;&lt;font style=&quot;background-color: rgb(255, 255, 153); font-size: 11px;&quot; face=&quot;Helvetica&quot;&gt;UserAuthController&lt;/font&gt;&lt;/pre&gt;&lt;/pre&gt;" style="shape=umlLifeline;perimeter=lifelinePerimeter;whiteSpace=wrap;html=1;container=1;dropTarget=0;collapsible=0;recursiveResize=0;outlineConnect=0;portConstraint=eastwest;newEdgeStyle={&quot;edgeStyle&quot;:&quot;elbowEdgeStyle&quot;,&quot;elbow&quot;:&quot;vertical&quot;,&quot;curved&quot;:0,&quot;rounded&quot;:0};strokeColor=#990000;fontSize=11;fillColor=#FFFF99;fontColor=#000000;fontStyle=1" vertex="1" parent="1">
          <mxGeometry x="-1431" y="2591" width="100" height="300" as="geometry" />
        </mxCell>
        <mxCell id="DpkDGt5Of3vKLXlmqG1_-237" value="" style="html=1;points=[];perimeter=orthogonalPerimeter;outlineConnect=0;targetShapes=umlLifeline;portConstraint=eastwest;newEdgeStyle={&quot;edgeStyle&quot;:&quot;elbowEdgeStyle&quot;,&quot;elbow&quot;:&quot;vertical&quot;,&quot;curved&quot;:0,&quot;rounded&quot;:0};labelBackgroundColor=#FFFF99;strokeColor=#990000;fontFamily=Helvetica;fontSize=11;fontColor=#000000;fillColor=#FFFF99;" vertex="1" parent="DpkDGt5Of3vKLXlmqG1_-236">
          <mxGeometry x="45" y="89" width="10" height="80" as="geometry" />
        </mxCell>
        <mxCell id="DpkDGt5Of3vKLXlmqG1_-241" value="" style="html=1;points=[];perimeter=orthogonalPerimeter;outlineConnect=0;targetShapes=umlLifeline;portConstraint=eastwest;newEdgeStyle={&quot;edgeStyle&quot;:&quot;elbowEdgeStyle&quot;,&quot;elbow&quot;:&quot;vertical&quot;,&quot;curved&quot;:0,&quot;rounded&quot;:0};labelBackgroundColor=#FFFF99;strokeColor=#990000;fontFamily=Helvetica;fontSize=11;fontColor=#000000;fillColor=#FFFF99;" vertex="1" parent="DpkDGt5Of3vKLXlmqG1_-236">
          <mxGeometry x="45" y="92" width="10" height="145" as="geometry" />
        </mxCell>
        <mxCell id="DpkDGt5Of3vKLXlmqG1_-242" value="1、游客填写邮箱以及获取验证码" style="html=1;verticalAlign=bottom;endArrow=block;edgeStyle=elbowEdgeStyle;elbow=vertical;curved=0;rounded=0;shadow=0;sketch=0;strokeColor=#FF230A;fontFamily=Helvetica;fontSize=11;fontColor=#000000;startSize=0;endSize=5;" edge="1" parent="DpkDGt5Of3vKLXlmqG1_-236">
          <mxGeometry x="-0.8897" relative="1" as="geometry">
            <mxPoint x="-27" y="91" as="sourcePoint" />
            <mxPoint x="43" y="91" as="targetPoint" />
            <Array as="points">
              <mxPoint x="-137" y="91" />
            </Array>
            <mxPoint as="offset" />
          </mxGeometry>
        </mxCell>
        <mxCell id="DpkDGt5Of3vKLXlmqG1_-238" value="&lt;b&gt;userAuthService&lt;/b&gt;" style="shape=umlLifeline;perimeter=lifelinePerimeter;whiteSpace=wrap;html=1;container=1;dropTarget=0;collapsible=0;recursiveResize=0;outlineConnect=0;portConstraint=eastwest;newEdgeStyle={&quot;edgeStyle&quot;:&quot;elbowEdgeStyle&quot;,&quot;elbow&quot;:&quot;vertical&quot;,&quot;curved&quot;:0,&quot;rounded&quot;:0};labelBackgroundColor=#FFFF99;strokeColor=#990000;fontFamily=Helvetica;fontSize=11;fontColor=#000000;fillColor=#FFFF99;" vertex="1" parent="1">
          <mxGeometry x="-1234" y="2591" width="100" height="300" as="geometry" />
        </mxCell>
        <mxCell id="DpkDGt5Of3vKLXlmqG1_-239" value="" style="html=1;points=[];perimeter=orthogonalPerimeter;outlineConnect=0;targetShapes=umlLifeline;portConstraint=eastwest;newEdgeStyle={&quot;edgeStyle&quot;:&quot;elbowEdgeStyle&quot;,&quot;elbow&quot;:&quot;vertical&quot;,&quot;curved&quot;:0,&quot;rounded&quot;:0};labelBackgroundColor=#FFFF99;strokeColor=#990000;fontFamily=Helvetica;fontSize=11;fontColor=#000000;fillColor=#FFFF99;" vertex="1" parent="DpkDGt5Of3vKLXlmqG1_-238">
          <mxGeometry x="45" y="89" width="10" height="189" as="geometry" />
        </mxCell>
        <mxCell id="DpkDGt5Of3vKLXlmqG1_-246" value="游客" style="shape=umlLifeline;perimeter=lifelinePerimeter;whiteSpace=wrap;html=1;container=1;dropTarget=0;collapsible=0;recursiveResize=0;outlineConnect=0;portConstraint=eastwest;newEdgeStyle={&quot;edgeStyle&quot;:&quot;elbowEdgeStyle&quot;,&quot;elbow&quot;:&quot;vertical&quot;,&quot;curved&quot;:0,&quot;rounded&quot;:0};participant=umlActor;labelBackgroundColor=#FFFF99;strokeColor=#990000;fontFamily=Helvetica;fontSize=11;fontColor=#000000;fillColor=#FFFF99;size=53;" vertex="1" parent="1">
          <mxGeometry x="-1584" y="2579" width="32" height="306" as="geometry" />
        </mxCell>
        <mxCell id="DpkDGt5Of3vKLXlmqG1_-247" value="" style="html=1;points=[];perimeter=orthogonalPerimeter;outlineConnect=0;targetShapes=umlLifeline;portConstraint=eastwest;newEdgeStyle={&quot;edgeStyle&quot;:&quot;elbowEdgeStyle&quot;,&quot;elbow&quot;:&quot;vertical&quot;,&quot;curved&quot;:0,&quot;rounded&quot;:0};labelBackgroundColor=#FFFF99;strokeColor=#990000;fontFamily=Helvetica;fontSize=11;fontColor=#000000;fillColor=#FFFF99;" vertex="1" parent="DpkDGt5Of3vKLXlmqG1_-246">
          <mxGeometry x="11" y="73" width="10" height="226" as="geometry" />
        </mxCell>
        <mxCell id="DpkDGt5Of3vKLXlmqG1_-248" value="2、获取邮箱以及发送验证码" style="html=1;verticalAlign=bottom;endArrow=block;edgeStyle=elbowEdgeStyle;elbow=vertical;curved=0;rounded=0;shadow=0;sketch=0;strokeColor=#FF230A;fontFamily=Helvetica;fontSize=11;fontColor=#000000;startSize=0;endSize=5;" edge="1" parent="1" target="DpkDGt5Of3vKLXlmqG1_-238">
          <mxGeometry x="-0.1123" width="80" relative="1" as="geometry">
            <mxPoint x="-1376" y="2699" as="sourcePoint" />
            <mxPoint x="-1296" y="2699" as="targetPoint" />
            <mxPoint x="1" as="offset" />
          </mxGeometry>
        </mxCell>
        <mxCell id="DpkDGt5Of3vKLXlmqG1_-249" value="3、验证邮箱正确性，发送验证码" style="html=1;verticalAlign=bottom;endArrow=block;edgeStyle=elbowEdgeStyle;rounded=0;shadow=0;sketch=0;strokeColor=#FF230A;fontFamily=Helvetica;fontSize=11;fontColor=#000000;startSize=0;endSize=5;" edge="1" parent="1" target="DpkDGt5Of3vKLXlmqG1_-239">
          <mxGeometry x="-0.0917" y="-3" width="80" relative="1" as="geometry">
            <mxPoint x="-1180" y="2713" as="sourcePoint" />
            <mxPoint x="-1048" y="2735" as="targetPoint" />
            <Array as="points">
              <mxPoint x="-1076" y="2735" />
            </Array>
            <mxPoint x="3" y="-3" as="offset" />
          </mxGeometry>
        </mxCell>
        <mxCell id="DpkDGt5Of3vKLXlmqG1_-251" value="4、填写验证码以及密码" style="html=1;verticalAlign=bottom;endArrow=block;edgeStyle=elbowEdgeStyle;elbow=vertical;curved=0;rounded=0;shadow=0;sketch=0;strokeColor=#FF230A;fontFamily=Helvetica;fontSize=11;fontColor=#000000;startSize=0;endSize=5;" edge="1" parent="1" target="DpkDGt5Of3vKLXlmqG1_-236">
          <mxGeometry x="0.0075" width="80" relative="1" as="geometry">
            <mxPoint x="-1563" y="2729" as="sourcePoint" />
            <mxPoint x="-1483" y="2729" as="targetPoint" />
            <mxPoint as="offset" />
          </mxGeometry>
        </mxCell>
        <mxCell id="DpkDGt5Of3vKLXlmqG1_-252" value="5、注册用户" style="html=1;verticalAlign=bottom;endArrow=block;edgeStyle=elbowEdgeStyle;elbow=vertical;curved=0;rounded=0;shadow=0;sketch=0;strokeColor=#FF230A;fontFamily=Helvetica;fontSize=11;fontColor=#000000;startSize=0;endSize=5;" edge="1" parent="1" target="DpkDGt5Of3vKLXlmqG1_-238">
          <mxGeometry width="80" relative="1" as="geometry">
            <mxPoint x="-1376" y="2758" as="sourcePoint" />
            <mxPoint x="-1296" y="2758" as="targetPoint" />
          </mxGeometry>
        </mxCell>
        <mxCell id="DpkDGt5Of3vKLXlmqG1_-255" value="6、后台验证" style="html=1;verticalAlign=bottom;endArrow=block;elbow=vertical;rounded=0;shadow=0;sketch=0;strokeColor=#FF230A;fontFamily=Helvetica;fontSize=11;fontColor=#000000;startSize=0;endSize=5;edgeStyle=orthogonalEdgeStyle;" edge="1" parent="1" target="DpkDGt5Of3vKLXlmqG1_-238">
          <mxGeometry x="-0.618" y="7" width="80" relative="1" as="geometry">
            <mxPoint x="-1178" y="2777" as="sourcePoint" />
            <mxPoint x="-1089" y="2823" as="targetPoint" />
            <Array as="points">
              <mxPoint x="-1040" y="2777" />
              <mxPoint x="-1040" y="2803" />
            </Array>
            <mxPoint as="offset" />
          </mxGeometry>
        </mxCell>
        <mxCell id="DpkDGt5Of3vKLXlmqG1_-261" value="7、注册成功" style="html=1;verticalAlign=bottom;endArrow=open;dashed=1;endSize=8;edgeStyle=elbowEdgeStyle;elbow=vertical;curved=0;rounded=0;shadow=0;sketch=0;strokeColor=#FF230A;fontFamily=Helvetica;fontSize=11;fontColor=#000000;" edge="1" parent="1" target="DpkDGt5Of3vKLXlmqG1_-246">
          <mxGeometry x="0.4323" y="-5" relative="1" as="geometry">
            <mxPoint x="-1189" y="2843" as="sourcePoint" />
            <mxPoint x="-1269" y="2843" as="targetPoint" />
            <mxPoint x="1" as="offset" />
          </mxGeometry>
        </mxCell>
        <mxCell id="DpkDGt5Of3vKLXlmqG1_-276" value="&lt;pre style=&quot;font-size: 11px;&quot;&gt;&lt;pre style=&quot;font-size: 11px;&quot;&gt;&lt;font style=&quot;background-color: rgb(255, 255, 153); font-size: 11px;&quot; face=&quot;Helvetica&quot;&gt;UserAuthController&lt;/font&gt;&lt;/pre&gt;&lt;/pre&gt;" style="shape=umlLifeline;perimeter=lifelinePerimeter;whiteSpace=wrap;html=1;container=1;dropTarget=0;collapsible=0;recursiveResize=0;outlineConnect=0;portConstraint=eastwest;newEdgeStyle={&quot;edgeStyle&quot;:&quot;elbowEdgeStyle&quot;,&quot;elbow&quot;:&quot;vertical&quot;,&quot;curved&quot;:0,&quot;rounded&quot;:0};strokeColor=#990000;fontSize=11;fillColor=#FFFF99;fontColor=#000000;fontStyle=1" vertex="1" parent="1">
          <mxGeometry x="-1431" y="2965" width="100" height="300" as="geometry" />
        </mxCell>
        <mxCell id="DpkDGt5Of3vKLXlmqG1_-277" value="" style="html=1;points=[];perimeter=orthogonalPerimeter;outlineConnect=0;targetShapes=umlLifeline;portConstraint=eastwest;newEdgeStyle={&quot;edgeStyle&quot;:&quot;elbowEdgeStyle&quot;,&quot;elbow&quot;:&quot;vertical&quot;,&quot;curved&quot;:0,&quot;rounded&quot;:0};labelBackgroundColor=#FFFF99;strokeColor=#990000;fontFamily=Helvetica;fontSize=11;fontColor=#000000;fillColor=#FFFF99;" vertex="1" parent="DpkDGt5Of3vKLXlmqG1_-276">
          <mxGeometry x="45" y="89" width="10" height="80" as="geometry" />
        </mxCell>
        <mxCell id="DpkDGt5Of3vKLXlmqG1_-278" value="" style="html=1;points=[];perimeter=orthogonalPerimeter;outlineConnect=0;targetShapes=umlLifeline;portConstraint=eastwest;newEdgeStyle={&quot;edgeStyle&quot;:&quot;elbowEdgeStyle&quot;,&quot;elbow&quot;:&quot;vertical&quot;,&quot;curved&quot;:0,&quot;rounded&quot;:0};labelBackgroundColor=#FFFF99;strokeColor=#990000;fontFamily=Helvetica;fontSize=11;fontColor=#000000;fillColor=#FFFF99;" vertex="1" parent="DpkDGt5Of3vKLXlmqG1_-276">
          <mxGeometry x="45" y="92" width="10" height="145" as="geometry" />
        </mxCell>
        <mxCell id="DpkDGt5Of3vKLXlmqG1_-279" value="1、填写邮箱和密码或者选择QQ登录" style="html=1;verticalAlign=bottom;endArrow=block;edgeStyle=elbowEdgeStyle;elbow=vertical;curved=0;rounded=0;shadow=0;sketch=0;strokeColor=#FF230A;fontFamily=Helvetica;fontSize=11;fontColor=#000000;startSize=0;endSize=5;" edge="1" parent="DpkDGt5Of3vKLXlmqG1_-276">
          <mxGeometry x="0.4089" relative="1" as="geometry">
            <mxPoint x="-24" y="91" as="sourcePoint" />
            <mxPoint x="46" y="91" as="targetPoint" />
            <Array as="points">
              <mxPoint x="-174" y="91" />
            </Array>
            <mxPoint as="offset" />
          </mxGeometry>
        </mxCell>
        <mxCell id="DpkDGt5Of3vKLXlmqG1_-280" value="&lt;b&gt;userAuthService&lt;/b&gt;" style="shape=umlLifeline;perimeter=lifelinePerimeter;whiteSpace=wrap;html=1;container=1;dropTarget=0;collapsible=0;recursiveResize=0;outlineConnect=0;portConstraint=eastwest;newEdgeStyle={&quot;edgeStyle&quot;:&quot;elbowEdgeStyle&quot;,&quot;elbow&quot;:&quot;vertical&quot;,&quot;curved&quot;:0,&quot;rounded&quot;:0};labelBackgroundColor=#FFFF99;strokeColor=#990000;fontFamily=Helvetica;fontSize=11;fontColor=#000000;fillColor=#FFFF99;" vertex="1" parent="1">
          <mxGeometry x="-1234" y="2965" width="100" height="300" as="geometry" />
        </mxCell>
        <mxCell id="DpkDGt5Of3vKLXlmqG1_-281" value="" style="html=1;points=[];perimeter=orthogonalPerimeter;outlineConnect=0;targetShapes=umlLifeline;portConstraint=eastwest;newEdgeStyle={&quot;edgeStyle&quot;:&quot;elbowEdgeStyle&quot;,&quot;elbow&quot;:&quot;vertical&quot;,&quot;curved&quot;:0,&quot;rounded&quot;:0};labelBackgroundColor=#FFFF99;strokeColor=#990000;fontFamily=Helvetica;fontSize=11;fontColor=#000000;fillColor=#FFFF99;" vertex="1" parent="DpkDGt5Of3vKLXlmqG1_-280">
          <mxGeometry x="45" y="89" width="10" height="189" as="geometry" />
        </mxCell>
        <mxCell id="DpkDGt5Of3vKLXlmqG1_-282" value="游客" style="shape=umlLifeline;perimeter=lifelinePerimeter;whiteSpace=wrap;html=1;container=1;dropTarget=0;collapsible=0;recursiveResize=0;outlineConnect=0;portConstraint=eastwest;newEdgeStyle={&quot;edgeStyle&quot;:&quot;elbowEdgeStyle&quot;,&quot;elbow&quot;:&quot;vertical&quot;,&quot;curved&quot;:0,&quot;rounded&quot;:0};participant=umlActor;labelBackgroundColor=#FFFF99;strokeColor=#990000;fontFamily=Helvetica;fontSize=11;fontColor=#000000;fillColor=#FFFF99;size=53;" vertex="1" parent="1">
          <mxGeometry x="-1625" y="2962" width="32" height="306" as="geometry" />
        </mxCell>
        <mxCell id="DpkDGt5Of3vKLXlmqG1_-283" value="" style="html=1;points=[];perimeter=orthogonalPerimeter;outlineConnect=0;targetShapes=umlLifeline;portConstraint=eastwest;newEdgeStyle={&quot;edgeStyle&quot;:&quot;elbowEdgeStyle&quot;,&quot;elbow&quot;:&quot;vertical&quot;,&quot;curved&quot;:0,&quot;rounded&quot;:0};labelBackgroundColor=#FFFF99;strokeColor=#990000;fontFamily=Helvetica;fontSize=11;fontColor=#000000;fillColor=#FFFF99;" vertex="1" parent="DpkDGt5Of3vKLXlmqG1_-282">
          <mxGeometry x="11" y="73" width="10" height="226" as="geometry" />
        </mxCell>
        <mxCell id="DpkDGt5Of3vKLXlmqG1_-284" value="2、携带用户信息调用service" style="html=1;verticalAlign=bottom;endArrow=block;edgeStyle=elbowEdgeStyle;elbow=vertical;curved=0;rounded=0;shadow=0;sketch=0;strokeColor=#FF230A;fontFamily=Helvetica;fontSize=11;fontColor=#000000;startSize=0;endSize=5;" edge="1" parent="1" target="DpkDGt5Of3vKLXlmqG1_-280">
          <mxGeometry x="-0.1123" width="80" relative="1" as="geometry">
            <mxPoint x="-1376" y="3073" as="sourcePoint" />
            <mxPoint x="-1296" y="3073" as="targetPoint" />
            <mxPoint x="1" as="offset" />
          </mxGeometry>
        </mxCell>
        <mxCell id="DpkDGt5Of3vKLXlmqG1_-285" value="3、验证账号信息" style="html=1;verticalAlign=bottom;endArrow=block;edgeStyle=elbowEdgeStyle;rounded=0;shadow=0;sketch=0;strokeColor=#FF230A;fontFamily=Helvetica;fontSize=11;fontColor=#000000;startSize=0;endSize=5;" edge="1" parent="1" target="DpkDGt5Of3vKLXlmqG1_-281">
          <mxGeometry x="-0.4934" width="80" relative="1" as="geometry">
            <mxPoint x="-1180" y="3087" as="sourcePoint" />
            <mxPoint x="-1048" y="3109" as="targetPoint" />
            <Array as="points">
              <mxPoint x="-1076" y="3109" />
            </Array>
            <mxPoint x="-1" as="offset" />
          </mxGeometry>
        </mxCell>
        <mxCell id="DpkDGt5Of3vKLXlmqG1_-289" value="7、提示登录成功并返回Token" style="html=1;verticalAlign=bottom;endArrow=open;dashed=1;endSize=8;edgeStyle=elbowEdgeStyle;elbow=vertical;curved=0;rounded=0;shadow=0;sketch=0;strokeColor=#FF230A;fontFamily=Helvetica;fontSize=11;fontColor=#000000;" edge="1" parent="1" target="DpkDGt5Of3vKLXlmqG1_-282">
          <mxGeometry x="0.4547" y="-4" relative="1" as="geometry">
            <mxPoint x="-1189" y="3217" as="sourcePoint" />
            <mxPoint x="-1269" y="3217" as="targetPoint" />
            <mxPoint x="1" as="offset" />
          </mxGeometry>
        </mxCell>
        <mxCell id="DpkDGt5Of3vKLXlmqG1_-293" value="用户" style="shape=umlLifeline;perimeter=lifelinePerimeter;whiteSpace=wrap;html=1;container=1;dropTarget=0;collapsible=0;recursiveResize=0;outlineConnect=0;portConstraint=eastwest;newEdgeStyle={&quot;edgeStyle&quot;:&quot;elbowEdgeStyle&quot;,&quot;elbow&quot;:&quot;vertical&quot;,&quot;curved&quot;:0,&quot;rounded&quot;:0};participant=umlActor;labelBackgroundColor=#FFFF99;strokeColor=#990000;fontFamily=Helvetica;fontSize=11;fontColor=#000000;fillColor=#FFFF99;size=53;" vertex="1" parent="1">
          <mxGeometry x="-896" y="2967" width="32" height="306" as="geometry" />
        </mxCell>
        <mxCell id="DpkDGt5Of3vKLXlmqG1_-294" value="" style="html=1;points=[];perimeter=orthogonalPerimeter;outlineConnect=0;targetShapes=umlLifeline;portConstraint=eastwest;newEdgeStyle={&quot;edgeStyle&quot;:&quot;elbowEdgeStyle&quot;,&quot;elbow&quot;:&quot;vertical&quot;,&quot;curved&quot;:0,&quot;rounded&quot;:0};labelBackgroundColor=#FFFF99;strokeColor=#990000;fontFamily=Helvetica;fontSize=11;fontColor=#000000;fillColor=#FFFF99;" vertex="1" parent="DpkDGt5Of3vKLXlmqG1_-293">
          <mxGeometry x="11" y="73" width="10" height="226" as="geometry" />
        </mxCell>
        <mxCell id="DpkDGt5Of3vKLXlmqG1_-295" value="JwtAuthTokenFilter" style="shape=umlLifeline;perimeter=lifelinePerimeter;whiteSpace=wrap;html=1;container=1;dropTarget=0;collapsible=0;recursiveResize=0;outlineConnect=0;portConstraint=eastwest;newEdgeStyle={&quot;edgeStyle&quot;:&quot;elbowEdgeStyle&quot;,&quot;elbow&quot;:&quot;vertical&quot;,&quot;curved&quot;:0,&quot;rounded&quot;:0};labelBackgroundColor=#FFFF99;strokeColor=#990000;fontFamily=Helvetica;fontSize=11;fontColor=#000000;fillColor=#FFFF99;fontStyle=1" vertex="1" parent="1">
          <mxGeometry x="-755" y="2973" width="100" height="300" as="geometry" />
        </mxCell>
        <mxCell id="DpkDGt5Of3vKLXlmqG1_-296" value="" style="html=1;points=[];perimeter=orthogonalPerimeter;outlineConnect=0;targetShapes=umlLifeline;portConstraint=eastwest;newEdgeStyle={&quot;edgeStyle&quot;:&quot;elbowEdgeStyle&quot;,&quot;elbow&quot;:&quot;vertical&quot;,&quot;curved&quot;:0,&quot;rounded&quot;:0};labelBackgroundColor=#FFFF99;strokeColor=#990000;fontFamily=Helvetica;fontSize=11;fontColor=#000000;fillColor=#FFFF99;fontStyle=1" vertex="1" parent="DpkDGt5Of3vKLXlmqG1_-295">
          <mxGeometry x="45" y="78" width="10" height="183" as="geometry" />
        </mxCell>
        <mxCell id="DpkDGt5Of3vKLXlmqG1_-297" value="CommentController" style="shape=umlLifeline;perimeter=lifelinePerimeter;whiteSpace=wrap;html=1;container=1;dropTarget=0;collapsible=0;recursiveResize=0;outlineConnect=0;portConstraint=eastwest;newEdgeStyle={&quot;edgeStyle&quot;:&quot;elbowEdgeStyle&quot;,&quot;elbow&quot;:&quot;vertical&quot;,&quot;curved&quot;:0,&quot;rounded&quot;:0};labelBackgroundColor=#FFFF99;strokeColor=#990000;fontFamily=Helvetica;fontSize=11;fontColor=#000000;fillColor=#FFFF99;fontStyle=1" vertex="1" parent="1">
          <mxGeometry x="-569" y="2973" width="100" height="300" as="geometry" />
        </mxCell>
        <mxCell id="DpkDGt5Of3vKLXlmqG1_-299" value="" style="html=1;points=[];perimeter=orthogonalPerimeter;outlineConnect=0;targetShapes=umlLifeline;portConstraint=eastwest;newEdgeStyle={&quot;edgeStyle&quot;:&quot;elbowEdgeStyle&quot;,&quot;elbow&quot;:&quot;vertical&quot;,&quot;curved&quot;:0,&quot;rounded&quot;:0};labelBackgroundColor=#FFFF99;strokeColor=#990000;fontFamily=Helvetica;fontSize=11;fontColor=#000000;fillColor=#FFFF99;fontStyle=1" vertex="1" parent="DpkDGt5Of3vKLXlmqG1_-297">
          <mxGeometry x="45" y="88" width="10" height="172" as="geometry" />
        </mxCell>
        <mxCell id="DpkDGt5Of3vKLXlmqG1_-298" value="commentService" style="shape=umlLifeline;perimeter=lifelinePerimeter;whiteSpace=wrap;html=1;container=1;dropTarget=0;collapsible=0;recursiveResize=0;outlineConnect=0;portConstraint=eastwest;newEdgeStyle={&quot;edgeStyle&quot;:&quot;elbowEdgeStyle&quot;,&quot;elbow&quot;:&quot;vertical&quot;,&quot;curved&quot;:0,&quot;rounded&quot;:0};labelBackgroundColor=#FFFF99;strokeColor=#990000;fontFamily=Helvetica;fontSize=11;fontColor=#000000;fillColor=#FFFF99;fontStyle=1" vertex="1" parent="1">
          <mxGeometry x="-370" y="2970" width="100" height="334" as="geometry" />
        </mxCell>
        <mxCell id="DpkDGt5Of3vKLXlmqG1_-300" value="" style="html=1;points=[];perimeter=orthogonalPerimeter;outlineConnect=0;targetShapes=umlLifeline;portConstraint=eastwest;newEdgeStyle={&quot;edgeStyle&quot;:&quot;elbowEdgeStyle&quot;,&quot;elbow&quot;:&quot;vertical&quot;,&quot;curved&quot;:0,&quot;rounded&quot;:0};labelBackgroundColor=#FFFF99;strokeColor=#990000;fontFamily=Helvetica;fontSize=11;fontColor=#000000;fillColor=#FFFF99;fontStyle=1" vertex="1" parent="DpkDGt5Of3vKLXlmqG1_-298">
          <mxGeometry x="45" y="84" width="10" height="215" as="geometry" />
        </mxCell>
        <mxCell id="DpkDGt5Of3vKLXlmqG1_-301" value="1、用户发送评论，请求头中携带token信息" style="html=1;verticalAlign=bottom;endArrow=block;edgeStyle=elbowEdgeStyle;elbow=vertical;curved=0;rounded=0;shadow=0;sketch=0;strokeColor=#FF230A;fontFamily=Helvetica;fontSize=11;fontColor=#000000;startSize=0;endSize=5;" edge="1" parent="1" target="DpkDGt5Of3vKLXlmqG1_-296">
          <mxGeometry width="80" relative="1" as="geometry">
            <mxPoint x="-878" y="3063" as="sourcePoint" />
            <mxPoint x="-798" y="3063" as="targetPoint" />
          </mxGeometry>
        </mxCell>
        <mxCell id="DpkDGt5Of3vKLXlmqG1_-302" value="2、根据token验证用户信息" style="html=1;verticalAlign=bottom;endArrow=block;edgeStyle=orthogonalEdgeStyle;elbow=vertical;rounded=0;shadow=0;sketch=0;strokeColor=#FF230A;fontFamily=Helvetica;fontSize=11;fontColor=#000000;startSize=0;endSize=5;" edge="1" parent="1" target="DpkDGt5Of3vKLXlmqG1_-295">
          <mxGeometry x="-0.1548" y="-5" width="80" relative="1" as="geometry">
            <mxPoint x="-702" y="3083" as="sourcePoint" />
            <mxPoint x="-600" y="3136" as="targetPoint" />
            <Array as="points">
              <mxPoint x="-623" y="3083" />
              <mxPoint x="-623" y="3108" />
            </Array>
            <mxPoint x="5" y="-5" as="offset" />
          </mxGeometry>
        </mxCell>
        <mxCell id="DpkDGt5Of3vKLXlmqG1_-303" value="4、验证成功，放行请求" style="html=1;verticalAlign=bottom;endArrow=block;edgeStyle=elbowEdgeStyle;elbow=vertical;curved=0;rounded=0;shadow=0;sketch=0;strokeColor=#FF230A;fontFamily=Helvetica;fontSize=11;fontColor=#000000;startSize=0;endSize=5;" edge="1" parent="1" target="DpkDGt5Of3vKLXlmqG1_-297">
          <mxGeometry x="0.0084" width="80" relative="1" as="geometry">
            <mxPoint x="-698" y="3168" as="sourcePoint" />
            <mxPoint x="-618" y="3145" as="targetPoint" />
            <Array as="points">
              <mxPoint x="-643" y="3168" />
            </Array>
            <mxPoint as="offset" />
          </mxGeometry>
        </mxCell>
        <mxCell id="DpkDGt5Of3vKLXlmqG1_-304" value="3、验证失败、提示用户登录" style="html=1;verticalAlign=bottom;endArrow=open;dashed=1;endSize=8;edgeStyle=elbowEdgeStyle;elbow=vertical;curved=0;rounded=0;shadow=0;sketch=0;strokeColor=#FF230A;fontFamily=Helvetica;fontSize=11;fontColor=#000000;" edge="1" parent="1" target="DpkDGt5Of3vKLXlmqG1_-294">
          <mxGeometry relative="1" as="geometry">
            <mxPoint x="-713" y="3126" as="sourcePoint" />
            <mxPoint x="-793" y="3126" as="targetPoint" />
          </mxGeometry>
        </mxCell>
        <mxCell id="DpkDGt5Of3vKLXlmqG1_-305" value="5、调用Service" style="html=1;verticalAlign=bottom;endArrow=block;edgeStyle=elbowEdgeStyle;elbow=vertical;curved=0;rounded=0;shadow=0;sketch=0;strokeColor=#FF230A;fontFamily=Helvetica;fontSize=11;fontColor=#000000;startSize=0;endSize=5;" edge="1" parent="1" target="DpkDGt5Of3vKLXlmqG1_-298">
          <mxGeometry width="80" relative="1" as="geometry">
            <mxPoint x="-515" y="3187" as="sourcePoint" />
            <mxPoint x="-435" y="3187" as="targetPoint" />
          </mxGeometry>
        </mxCell>
        <mxCell id="DpkDGt5Of3vKLXlmqG1_-306" value="6、脏字过滤，并存储评论信息" style="html=1;verticalAlign=bottom;endArrow=block;edgeStyle=elbowEdgeStyle;rounded=0;shadow=0;sketch=0;strokeColor=#FF230A;fontFamily=Helvetica;fontSize=11;fontColor=#000000;startSize=0;endSize=5;" edge="1" parent="1" target="DpkDGt5Of3vKLXlmqG1_-298">
          <mxGeometry x="-0.1755" y="9" width="80" relative="1" as="geometry">
            <mxPoint x="-315" y="3205" as="sourcePoint" />
            <mxPoint x="-230" y="3248" as="targetPoint" />
            <Array as="points">
              <mxPoint x="-240" y="3231" />
              <mxPoint x="-227" y="3239" />
            </Array>
            <mxPoint x="-2" y="-7" as="offset" />
          </mxGeometry>
        </mxCell>
        <mxCell id="DpkDGt5Of3vKLXlmqG1_-307" value="7、评论成功" style="html=1;verticalAlign=bottom;endArrow=open;dashed=1;endSize=8;edgeStyle=elbowEdgeStyle;elbow=vertical;curved=0;rounded=0;shadow=0;sketch=0;strokeColor=#FF230A;fontFamily=Helvetica;fontSize=11;fontColor=#000000;" edge="1" parent="1" target="DpkDGt5Of3vKLXlmqG1_-293">
          <mxGeometry x="0.7634" y="-5" relative="1" as="geometry">
            <mxPoint x="-324" y="3250" as="sourcePoint" />
            <mxPoint x="-404" y="3250" as="targetPoint" />
            <mxPoint as="offset" />
          </mxGeometry>
        </mxCell>
        <mxCell id="DpkDGt5Of3vKLXlmqG1_-308" value="游客" style="shape=umlLifeline;perimeter=lifelinePerimeter;whiteSpace=wrap;html=1;container=1;dropTarget=0;collapsible=0;recursiveResize=0;outlineConnect=0;portConstraint=eastwest;newEdgeStyle={&quot;edgeStyle&quot;:&quot;elbowEdgeStyle&quot;,&quot;elbow&quot;:&quot;vertical&quot;,&quot;curved&quot;:0,&quot;rounded&quot;:0};participant=umlActor;labelBackgroundColor=#FFFF99;strokeColor=#990000;fontFamily=Helvetica;fontSize=11;fontColor=#000000;fillColor=#FFFF99;size=53;" vertex="1" parent="1">
          <mxGeometry x="-907" y="3380" width="32" height="306" as="geometry" />
        </mxCell>
        <mxCell id="DpkDGt5Of3vKLXlmqG1_-309" value="" style="html=1;points=[];perimeter=orthogonalPerimeter;outlineConnect=0;targetShapes=umlLifeline;portConstraint=eastwest;newEdgeStyle={&quot;edgeStyle&quot;:&quot;elbowEdgeStyle&quot;,&quot;elbow&quot;:&quot;vertical&quot;,&quot;curved&quot;:0,&quot;rounded&quot;:0};labelBackgroundColor=#FFFF99;strokeColor=#990000;fontFamily=Helvetica;fontSize=11;fontColor=#000000;fillColor=#FFFF99;" vertex="1" parent="DpkDGt5Of3vKLXlmqG1_-308">
          <mxGeometry x="11" y="73" width="10" height="226" as="geometry" />
        </mxCell>
        <mxCell id="DpkDGt5Of3vKLXlmqG1_-310" value="&lt;b&gt;ArticleController&lt;/b&gt;" style="shape=umlLifeline;perimeter=lifelinePerimeter;whiteSpace=wrap;html=1;container=1;dropTarget=0;collapsible=0;recursiveResize=0;outlineConnect=0;portConstraint=eastwest;newEdgeStyle={&quot;edgeStyle&quot;:&quot;elbowEdgeStyle&quot;,&quot;elbow&quot;:&quot;vertical&quot;,&quot;curved&quot;:0,&quot;rounded&quot;:0};labelBackgroundColor=#FFFF99;strokeColor=#990000;fontFamily=Helvetica;fontSize=11;fontColor=#000000;fillColor=#FFFF99;" vertex="1" parent="1">
          <mxGeometry x="-781" y="3380" width="100" height="300" as="geometry" />
        </mxCell>
        <mxCell id="DpkDGt5Of3vKLXlmqG1_-312" value="" style="html=1;points=[];perimeter=orthogonalPerimeter;outlineConnect=0;targetShapes=umlLifeline;portConstraint=eastwest;newEdgeStyle={&quot;edgeStyle&quot;:&quot;elbowEdgeStyle&quot;,&quot;elbow&quot;:&quot;vertical&quot;,&quot;curved&quot;:0,&quot;rounded&quot;:0};labelBackgroundColor=#FFFF99;strokeColor=#990000;fontFamily=Helvetica;fontSize=11;fontColor=#000000;fillColor=#FFFF99;" vertex="1" parent="DpkDGt5Of3vKLXlmqG1_-310">
          <mxGeometry x="45" y="54" width="10" height="215" as="geometry" />
        </mxCell>
        <mxCell id="DpkDGt5Of3vKLXlmqG1_-311" value="&lt;b&gt;articleService&lt;/b&gt;" style="shape=umlLifeline;perimeter=lifelinePerimeter;whiteSpace=wrap;html=1;container=1;dropTarget=0;collapsible=0;recursiveResize=0;outlineConnect=0;portConstraint=eastwest;newEdgeStyle={&quot;edgeStyle&quot;:&quot;elbowEdgeStyle&quot;,&quot;elbow&quot;:&quot;vertical&quot;,&quot;curved&quot;:0,&quot;rounded&quot;:0};labelBackgroundColor=#FFFF99;strokeColor=#990000;fontFamily=Helvetica;fontSize=11;fontColor=#000000;fillColor=#FFFF99;" vertex="1" parent="1">
          <mxGeometry x="-576" y="3380" width="100" height="300" as="geometry" />
        </mxCell>
        <mxCell id="DpkDGt5Of3vKLXlmqG1_-313" value="" style="html=1;points=[];perimeter=orthogonalPerimeter;outlineConnect=0;targetShapes=umlLifeline;portConstraint=eastwest;newEdgeStyle={&quot;edgeStyle&quot;:&quot;elbowEdgeStyle&quot;,&quot;elbow&quot;:&quot;vertical&quot;,&quot;curved&quot;:0,&quot;rounded&quot;:0};labelBackgroundColor=#FFFF99;strokeColor=#990000;fontFamily=Helvetica;fontSize=11;fontColor=#000000;fillColor=#FFFF99;" vertex="1" parent="DpkDGt5Of3vKLXlmqG1_-311">
          <mxGeometry x="45" y="66" width="10" height="204" as="geometry" />
        </mxCell>
        <mxCell id="DpkDGt5Of3vKLXlmqG1_-314" value="1、输入搜索内容，搜索" style="html=1;verticalAlign=bottom;endArrow=block;edgeStyle=elbowEdgeStyle;elbow=vertical;curved=0;rounded=0;shadow=0;sketch=0;strokeColor=#FF230A;fontFamily=Helvetica;fontSize=11;fontColor=#000000;startSize=0;endSize=5;" edge="1" parent="1" target="DpkDGt5Of3vKLXlmqG1_-310">
          <mxGeometry width="80" relative="1" as="geometry">
            <mxPoint x="-890" y="3478" as="sourcePoint" />
            <mxPoint x="-800" y="3478" as="targetPoint" />
          </mxGeometry>
        </mxCell>
        <mxCell id="DpkDGt5Of3vKLXlmqG1_-315" value="2、调用Service搜索内容" style="html=1;verticalAlign=bottom;endArrow=block;edgeStyle=elbowEdgeStyle;elbow=vertical;curved=0;rounded=0;shadow=0;sketch=0;strokeColor=#FF230A;fontFamily=Helvetica;fontSize=11;fontColor=#000000;startSize=0;endSize=5;" edge="1" parent="1" target="DpkDGt5Of3vKLXlmqG1_-311">
          <mxGeometry x="-0.1386" y="6" width="80" relative="1" as="geometry">
            <mxPoint x="-731" y="3496" as="sourcePoint" />
            <mxPoint x="-651" y="3496" as="targetPoint" />
            <mxPoint as="offset" />
          </mxGeometry>
        </mxCell>
        <mxCell id="DpkDGt5Of3vKLXlmqG1_-316" value="3、验证内容是否为空" style="html=1;verticalAlign=bottom;endArrow=block;edgeStyle=orthogonalEdgeStyle;elbow=vertical;rounded=0;shadow=0;sketch=0;strokeColor=#FF230A;fontFamily=Helvetica;fontSize=11;fontColor=#000000;startSize=0;endSize=5;" edge="1" parent="1" target="DpkDGt5Of3vKLXlmqG1_-311">
          <mxGeometry x="-0.4259" y="8" width="80" relative="1" as="geometry">
            <mxPoint x="-523" y="3508" as="sourcePoint" />
            <mxPoint x="-460" y="3543" as="targetPoint" />
            <Array as="points">
              <mxPoint x="-421" y="3508" />
              <mxPoint x="-421" y="3530" />
            </Array>
            <mxPoint as="offset" />
          </mxGeometry>
        </mxCell>
        <mxCell id="DpkDGt5Of3vKLXlmqG1_-317" value="4、提示搜索内容不能为空" style="html=1;verticalAlign=bottom;endArrow=open;dashed=1;endSize=8;edgeStyle=elbowEdgeStyle;elbow=vertical;curved=0;rounded=0;shadow=0;sketch=0;strokeColor=#FF230A;fontFamily=Helvetica;fontSize=11;fontColor=#000000;" edge="1" parent="1" target="DpkDGt5Of3vKLXlmqG1_-308">
          <mxGeometry x="-0.0686" relative="1" as="geometry">
            <mxPoint x="-531" y="3556" as="sourcePoint" />
            <mxPoint x="-611" y="3556" as="targetPoint" />
            <mxPoint as="offset" />
          </mxGeometry>
        </mxCell>
        <mxCell id="DpkDGt5Of3vKLXlmqG1_-318" value="5、内容不为空，搜索内容" style="html=1;verticalAlign=bottom;endArrow=block;edgeStyle=orthogonalEdgeStyle;elbow=vertical;rounded=0;shadow=0;sketch=0;strokeColor=#FF230A;fontFamily=Helvetica;fontSize=11;fontColor=#000000;startSize=0;endSize=5;" edge="1" parent="1" target="DpkDGt5Of3vKLXlmqG1_-311">
          <mxGeometry x="-0.2973" width="80" relative="1" as="geometry">
            <mxPoint x="-521" y="3573" as="sourcePoint" />
            <mxPoint x="-389" y="3610" as="targetPoint" />
            <Array as="points">
              <mxPoint x="-412" y="3573" />
              <mxPoint x="-412" y="3591" />
            </Array>
            <mxPoint x="-1" as="offset" />
          </mxGeometry>
        </mxCell>
        <mxCell id="DpkDGt5Of3vKLXlmqG1_-319" value="6、高亮关键词，返回搜索结果" style="html=1;verticalAlign=bottom;endArrow=open;dashed=1;endSize=8;edgeStyle=elbowEdgeStyle;elbow=vertical;curved=0;rounded=0;shadow=0;sketch=0;strokeColor=#FF230A;fontFamily=Helvetica;fontSize=11;fontColor=#000000;" edge="1" parent="1" target="DpkDGt5Of3vKLXlmqG1_-308">
          <mxGeometry x="0.4492" y="-6" relative="1" as="geometry">
            <mxPoint x="-533" y="3625" as="sourcePoint" />
            <mxPoint x="-613" y="3625" as="targetPoint" />
            <mxPoint as="offset" />
          </mxGeometry>
        </mxCell>
        <mxCell id="DpkDGt5Of3vKLXlmqG1_-321" value="用户" style="shape=umlLifeline;perimeter=lifelinePerimeter;whiteSpace=wrap;html=1;container=1;dropTarget=0;collapsible=0;recursiveResize=0;outlineConnect=0;portConstraint=eastwest;newEdgeStyle={&quot;edgeStyle&quot;:&quot;elbowEdgeStyle&quot;,&quot;elbow&quot;:&quot;vertical&quot;,&quot;curved&quot;:0,&quot;rounded&quot;:0};participant=umlActor;labelBackgroundColor=#FFFF99;strokeColor=#990000;fontFamily=Helvetica;fontSize=11;fontColor=#000000;fillColor=#FFFF99;size=53;" vertex="1" parent="1">
          <mxGeometry x="-928" y="3768" width="32" height="306" as="geometry" />
        </mxCell>
        <mxCell id="DpkDGt5Of3vKLXlmqG1_-322" value="" style="html=1;points=[];perimeter=orthogonalPerimeter;outlineConnect=0;targetShapes=umlLifeline;portConstraint=eastwest;newEdgeStyle={&quot;edgeStyle&quot;:&quot;elbowEdgeStyle&quot;,&quot;elbow&quot;:&quot;vertical&quot;,&quot;curved&quot;:0,&quot;rounded&quot;:0};labelBackgroundColor=#FFFF99;strokeColor=#990000;fontFamily=Helvetica;fontSize=11;fontColor=#000000;fillColor=#FFFF99;" vertex="1" parent="DpkDGt5Of3vKLXlmqG1_-321">
          <mxGeometry x="11" y="56" width="10" height="243" as="geometry" />
        </mxCell>
        <mxCell id="DpkDGt5Of3vKLXlmqG1_-323" value="UserInfoController" style="shape=umlLifeline;perimeter=lifelinePerimeter;whiteSpace=wrap;html=1;container=1;dropTarget=0;collapsible=0;recursiveResize=0;outlineConnect=0;portConstraint=eastwest;newEdgeStyle={&quot;edgeStyle&quot;:&quot;elbowEdgeStyle&quot;,&quot;elbow&quot;:&quot;vertical&quot;,&quot;curved&quot;:0,&quot;rounded&quot;:0};labelBackgroundColor=#FFFF99;strokeColor=#990000;fontFamily=Helvetica;fontSize=11;fontColor=#000000;fillColor=#FFFF99;fontStyle=1" vertex="1" parent="1">
          <mxGeometry x="-788" y="3779" width="100" height="300" as="geometry" />
        </mxCell>
        <mxCell id="DpkDGt5Of3vKLXlmqG1_-325" value="" style="html=1;points=[];perimeter=orthogonalPerimeter;outlineConnect=0;targetShapes=umlLifeline;portConstraint=eastwest;newEdgeStyle={&quot;edgeStyle&quot;:&quot;elbowEdgeStyle&quot;,&quot;elbow&quot;:&quot;vertical&quot;,&quot;curved&quot;:0,&quot;rounded&quot;:0};labelBackgroundColor=#FFFF99;strokeColor=#990000;fontFamily=Helvetica;fontSize=11;fontColor=#000000;fillColor=#FFFF99;fontStyle=1" vertex="1" parent="DpkDGt5Of3vKLXlmqG1_-323">
          <mxGeometry x="45" y="75" width="10" height="177" as="geometry" />
        </mxCell>
        <mxCell id="DpkDGt5Of3vKLXlmqG1_-324" value="userInfoService" style="shape=umlLifeline;perimeter=lifelinePerimeter;whiteSpace=wrap;html=1;container=1;dropTarget=0;collapsible=0;recursiveResize=0;outlineConnect=0;portConstraint=eastwest;newEdgeStyle={&quot;edgeStyle&quot;:&quot;elbowEdgeStyle&quot;,&quot;elbow&quot;:&quot;vertical&quot;,&quot;curved&quot;:0,&quot;rounded&quot;:0};labelBackgroundColor=#FFFF99;strokeColor=#990000;fontFamily=Helvetica;fontSize=11;fontColor=#000000;fillColor=#FFFF99;fontStyle=1" vertex="1" parent="1">
          <mxGeometry x="-602" y="3779" width="100" height="300" as="geometry" />
        </mxCell>
        <mxCell id="DpkDGt5Of3vKLXlmqG1_-326" value="" style="html=1;points=[];perimeter=orthogonalPerimeter;outlineConnect=0;targetShapes=umlLifeline;portConstraint=eastwest;newEdgeStyle={&quot;edgeStyle&quot;:&quot;elbowEdgeStyle&quot;,&quot;elbow&quot;:&quot;vertical&quot;,&quot;curved&quot;:0,&quot;rounded&quot;:0};labelBackgroundColor=#FFFF99;strokeColor=#990000;fontFamily=Helvetica;fontSize=11;fontColor=#000000;fillColor=#FFFF99;fontStyle=1" vertex="1" parent="DpkDGt5Of3vKLXlmqG1_-324">
          <mxGeometry x="45" y="75" width="10" height="183" as="geometry" />
        </mxCell>
        <mxCell id="DpkDGt5Of3vKLXlmqG1_-327" value="1、修改个人信息或者订阅博客" style="html=1;verticalAlign=bottom;endArrow=block;edgeStyle=elbowEdgeStyle;elbow=vertical;curved=0;rounded=0;shadow=0;sketch=0;strokeColor=#FF230A;fontFamily=Helvetica;fontSize=11;fontColor=#000000;startSize=0;endSize=5;" edge="1" parent="1" target="DpkDGt5Of3vKLXlmqG1_-323">
          <mxGeometry x="-0.0993" y="3" width="80" relative="1" as="geometry">
            <mxPoint x="-886" y="3863" as="sourcePoint" />
            <mxPoint x="-806" y="3863" as="targetPoint" />
            <Array as="points">
              <mxPoint x="-907" y="3863" />
            </Array>
            <mxPoint x="1" as="offset" />
          </mxGeometry>
        </mxCell>
        <mxCell id="DpkDGt5Of3vKLXlmqG1_-328" value="2、接收用户更新信息，调用Service" style="html=1;verticalAlign=bottom;endArrow=block;edgeStyle=elbowEdgeStyle;elbow=vertical;curved=0;rounded=0;shadow=0;sketch=0;strokeColor=#FF230A;fontFamily=Helvetica;fontSize=11;fontColor=#000000;startSize=0;endSize=5;" edge="1" parent="1" target="DpkDGt5Of3vKLXlmqG1_-324">
          <mxGeometry width="80" relative="1" as="geometry">
            <mxPoint x="-737" y="3883" as="sourcePoint" />
            <mxPoint x="-657" y="3883" as="targetPoint" />
          </mxGeometry>
        </mxCell>
        <mxCell id="DpkDGt5Of3vKLXlmqG1_-329" value="3、更新用户信息与订阅状态" style="html=1;verticalAlign=bottom;endArrow=block;rounded=0;shadow=0;sketch=0;strokeColor=#FF230A;fontFamily=Helvetica;fontSize=11;fontColor=#000000;startSize=0;endSize=5;edgeStyle=orthogonalEdgeStyle;" edge="1" parent="1" target="DpkDGt5Of3vKLXlmqG1_-324">
          <mxGeometry x="-0.3385" y="5" width="80" relative="1" as="geometry">
            <mxPoint x="-547" y="3905" as="sourcePoint" />
            <mxPoint x="-443" y="3945" as="targetPoint" />
            <Array as="points">
              <mxPoint x="-547" y="3900" />
              <mxPoint x="-443" y="3900" />
              <mxPoint x="-443" y="3915" />
            </Array>
            <mxPoint x="1" as="offset" />
          </mxGeometry>
        </mxCell>
        <mxCell id="DpkDGt5Of3vKLXlmqG1_-330" value="4、返回修改成功提示" style="html=1;verticalAlign=bottom;endArrow=open;dashed=1;endSize=8;edgeStyle=elbowEdgeStyle;elbow=vertical;curved=0;rounded=0;shadow=0;sketch=0;strokeColor=#FF230A;fontFamily=Helvetica;fontSize=11;fontColor=#000000;" edge="1" parent="1" target="DpkDGt5Of3vKLXlmqG1_-321">
          <mxGeometry x="0.5512" y="-8" relative="1" as="geometry">
            <mxPoint x="-557" y="3953" as="sourcePoint" />
            <mxPoint x="-637" y="3953" as="targetPoint" />
            <mxPoint x="-1" as="offset" />
          </mxGeometry>
        </mxCell>
        <mxCell id="DpkDGt5Of3vKLXlmqG1_-332" value="管理员" style="shape=umlLifeline;perimeter=lifelinePerimeter;whiteSpace=wrap;html=1;container=1;dropTarget=0;collapsible=0;recursiveResize=0;outlineConnect=0;portConstraint=eastwest;newEdgeStyle={&quot;edgeStyle&quot;:&quot;elbowEdgeStyle&quot;,&quot;elbow&quot;:&quot;vertical&quot;,&quot;curved&quot;:0,&quot;rounded&quot;:0};participant=umlActor;labelBackgroundColor=#FFFF99;strokeColor=#990000;fontFamily=Helvetica;fontSize=11;fontColor=#000000;fillColor=#FFFF99;size=53;" vertex="1" parent="1">
          <mxGeometry x="-930" y="4143" width="32" height="314" as="geometry" />
        </mxCell>
        <mxCell id="DpkDGt5Of3vKLXlmqG1_-333" value="" style="html=1;points=[];perimeter=orthogonalPerimeter;outlineConnect=0;targetShapes=umlLifeline;portConstraint=eastwest;newEdgeStyle={&quot;edgeStyle&quot;:&quot;elbowEdgeStyle&quot;,&quot;elbow&quot;:&quot;vertical&quot;,&quot;curved&quot;:0,&quot;rounded&quot;:0};labelBackgroundColor=#FFFF99;strokeColor=#990000;fontFamily=Helvetica;fontSize=11;fontColor=#000000;fillColor=#FFFF99;" vertex="1" parent="DpkDGt5Of3vKLXlmqG1_-332">
          <mxGeometry x="11" y="56" width="10" height="224" as="geometry" />
        </mxCell>
        <mxCell id="DpkDGt5Of3vKLXlmqG1_-334" value="ArticleController" style="shape=umlLifeline;perimeter=lifelinePerimeter;whiteSpace=wrap;html=1;container=1;dropTarget=0;collapsible=0;recursiveResize=0;outlineConnect=0;portConstraint=eastwest;newEdgeStyle={&quot;edgeStyle&quot;:&quot;elbowEdgeStyle&quot;,&quot;elbow&quot;:&quot;vertical&quot;,&quot;curved&quot;:0,&quot;rounded&quot;:0};labelBackgroundColor=#FFFF99;strokeColor=#990000;fontFamily=Helvetica;fontSize=11;fontColor=#000000;fillColor=#FFFF99;fontStyle=1" vertex="1" parent="1">
          <mxGeometry x="-800" y="4150" width="100" height="300" as="geometry" />
        </mxCell>
        <mxCell id="DpkDGt5Of3vKLXlmqG1_-336" value="" style="html=1;points=[];perimeter=orthogonalPerimeter;outlineConnect=0;targetShapes=umlLifeline;portConstraint=eastwest;newEdgeStyle={&quot;edgeStyle&quot;:&quot;elbowEdgeStyle&quot;,&quot;elbow&quot;:&quot;vertical&quot;,&quot;curved&quot;:0,&quot;rounded&quot;:0};labelBackgroundColor=#FFFF99;strokeColor=#990000;fontFamily=Helvetica;fontSize=11;fontColor=#000000;fillColor=#FFFF99;" vertex="1" parent="DpkDGt5Of3vKLXlmqG1_-334">
          <mxGeometry x="45" y="49" width="10" height="212" as="geometry" />
        </mxCell>
        <mxCell id="DpkDGt5Of3vKLXlmqG1_-335" value="articleService" style="shape=umlLifeline;perimeter=lifelinePerimeter;whiteSpace=wrap;html=1;container=1;dropTarget=0;collapsible=0;recursiveResize=0;outlineConnect=0;portConstraint=eastwest;newEdgeStyle={&quot;edgeStyle&quot;:&quot;elbowEdgeStyle&quot;,&quot;elbow&quot;:&quot;vertical&quot;,&quot;curved&quot;:0,&quot;rounded&quot;:0};labelBackgroundColor=#FFFF99;strokeColor=#990000;fontFamily=Helvetica;fontSize=11;fontColor=#000000;fillColor=#FFFF99;fontStyle=1" vertex="1" parent="1">
          <mxGeometry x="-605" y="4150" width="100" height="300" as="geometry" />
        </mxCell>
        <mxCell id="DpkDGt5Of3vKLXlmqG1_-337" value="" style="html=1;points=[];perimeter=orthogonalPerimeter;outlineConnect=0;targetShapes=umlLifeline;portConstraint=eastwest;newEdgeStyle={&quot;edgeStyle&quot;:&quot;elbowEdgeStyle&quot;,&quot;elbow&quot;:&quot;vertical&quot;,&quot;curved&quot;:0,&quot;rounded&quot;:0};labelBackgroundColor=#FFFF99;strokeColor=#990000;fontFamily=Helvetica;fontSize=11;fontColor=#000000;fillColor=#FFFF99;" vertex="1" parent="DpkDGt5Of3vKLXlmqG1_-335">
          <mxGeometry x="44" y="53" width="10" height="208" as="geometry" />
        </mxCell>
        <mxCell id="DpkDGt5Of3vKLXlmqG1_-338" value="1.1、博主发布文章" style="html=1;verticalAlign=bottom;endArrow=block;edgeStyle=elbowEdgeStyle;elbow=vertical;curved=0;rounded=0;shadow=0;sketch=0;strokeColor=#FF230A;fontFamily=Helvetica;fontSize=11;fontColor=#000000;startSize=0;endSize=5;" edge="1" parent="1" target="DpkDGt5Of3vKLXlmqG1_-334">
          <mxGeometry x="-0.0812" width="80" relative="1" as="geometry">
            <mxPoint x="-913" y="4242" as="sourcePoint" />
            <mxPoint x="-833" y="4242" as="targetPoint" />
            <mxPoint as="offset" />
          </mxGeometry>
        </mxCell>
        <mxCell id="DpkDGt5Of3vKLXlmqG1_-342" value="1.2、博主查询修改文章" style="html=1;verticalAlign=bottom;endArrow=block;edgeStyle=elbowEdgeStyle;elbow=vertical;curved=0;rounded=0;shadow=0;sketch=0;strokeColor=#FF230A;fontFamily=Helvetica;fontSize=11;fontColor=#000000;startSize=0;endSize=5;" edge="1" parent="1" target="DpkDGt5Of3vKLXlmqG1_-334">
          <mxGeometry x="0.0102" width="80" relative="1" as="geometry">
            <mxPoint x="-911" y="4266" as="sourcePoint" />
            <mxPoint x="-831" y="4266" as="targetPoint" />
            <mxPoint as="offset" />
          </mxGeometry>
        </mxCell>
        <mxCell id="DpkDGt5Of3vKLXlmqG1_-343" value="1.3、博主删除文章" style="html=1;verticalAlign=bottom;endArrow=block;edgeStyle=elbowEdgeStyle;elbow=vertical;curved=0;rounded=0;shadow=0;sketch=0;strokeColor=#FF230A;fontFamily=Helvetica;fontSize=11;fontColor=#000000;startSize=0;endSize=5;" edge="1" parent="1" target="DpkDGt5Of3vKLXlmqG1_-334">
          <mxGeometry x="-0.1238" width="80" relative="1" as="geometry">
            <mxPoint x="-908" y="4289" as="sourcePoint" />
            <mxPoint x="-828" y="4289" as="targetPoint" />
            <mxPoint as="offset" />
          </mxGeometry>
        </mxCell>
        <mxCell id="DpkDGt5Of3vKLXlmqG1_-344" value="2、调用具体功能方法" style="html=1;verticalAlign=bottom;endArrow=block;edgeStyle=elbowEdgeStyle;elbow=vertical;curved=0;rounded=0;shadow=0;sketch=0;strokeColor=#FF230A;fontFamily=Helvetica;fontSize=11;fontColor=#000000;startSize=0;endSize=5;" edge="1" parent="1" target="DpkDGt5Of3vKLXlmqG1_-335">
          <mxGeometry width="80" relative="1" as="geometry">
            <mxPoint x="-748" y="4309" as="sourcePoint" />
            <mxPoint x="-668" y="4309" as="targetPoint" />
          </mxGeometry>
        </mxCell>
        <mxCell id="DpkDGt5Of3vKLXlmqG1_-345" value="5.2、查询更新文章成功" style="html=1;verticalAlign=bottom;endArrow=open;dashed=1;endSize=8;edgeStyle=elbowEdgeStyle;elbow=vertical;curved=0;rounded=0;shadow=0;sketch=0;strokeColor=#FF230A;fontFamily=Helvetica;fontSize=11;fontColor=#000000;" edge="1" parent="1" target="DpkDGt5Of3vKLXlmqG1_-332">
          <mxGeometry x="-0.0022" relative="1" as="geometry">
            <mxPoint x="-563" y="4375" as="sourcePoint" />
            <mxPoint x="-643" y="4375" as="targetPoint" />
            <mxPoint as="offset" />
          </mxGeometry>
        </mxCell>
        <mxCell id="DpkDGt5Of3vKLXlmqG1_-346" value="5.1、发布文章成功" style="html=1;verticalAlign=bottom;endArrow=open;dashed=1;endSize=8;edgeStyle=elbowEdgeStyle;elbow=vertical;curved=0;rounded=0;shadow=0;sketch=0;strokeColor=#FF230A;fontFamily=Helvetica;fontSize=11;fontColor=#000000;" edge="1" parent="1">
          <mxGeometry relative="1" as="geometry">
            <mxPoint x="-561" y="4345" as="sourcePoint" />
            <mxPoint x="-915.9285714285716" y="4344.714285714286" as="targetPoint" />
          </mxGeometry>
        </mxCell>
        <mxCell id="DpkDGt5Of3vKLXlmqG1_-347" value="5.3、成功删除文章" style="html=1;verticalAlign=bottom;endArrow=open;dashed=1;endSize=8;edgeStyle=elbowEdgeStyle;elbow=vertical;curved=0;rounded=0;shadow=0;sketch=0;strokeColor=#FF230A;fontFamily=Helvetica;fontSize=11;fontColor=#000000;" edge="1" parent="1">
          <mxGeometry relative="1" as="geometry">
            <mxPoint x="-561" y="4400" as="sourcePoint" />
            <mxPoint x="-912" y="4400.428571428572" as="targetPoint" />
          </mxGeometry>
        </mxCell>
        <mxCell id="DpkDGt5Of3vKLXlmqG1_-348" value="3、" style="html=1;verticalAlign=bottom;endArrow=block;edgeStyle=orthogonalEdgeStyle;elbow=vertical;rounded=0;shadow=0;sketch=0;strokeColor=#FF230A;fontFamily=Helvetica;fontSize=11;fontColor=#000000;startSize=0;endSize=5;" edge="1" parent="1" target="DpkDGt5Of3vKLXlmqG1_-335">
          <mxGeometry x="-0.5277" y="4" width="80" relative="1" as="geometry">
            <mxPoint x="-550" y="4319" as="sourcePoint" />
            <mxPoint x="-431" y="4378" as="targetPoint" />
            <Array as="points">
              <mxPoint x="-417" y="4319" />
              <mxPoint x="-417" y="4335" />
            </Array>
            <mxPoint x="-1" as="offset" />
          </mxGeometry>
        </mxCell>
      </root>
    </mxGraphModel>
  </diagram>
</mxfile>
